<svg width="247" height="57" viewBox="0 0 247 57" fill="none" xmlns="http://www.w3.org/2000/svg">
<mask id="path-1-outside-1_1_4005" maskUnits="userSpaceOnUse" x="-6.39298" y="-7.2366" width="259.215" height="71.7882" fill="black">
<rect fill="white" x="-6.39298" y="-7.2366" width="259.215" height="71.7882"/>
<path d="M14.7142 44.4879L2.68225 44.5245L2.5517 1.6447L14.5836 1.60807L14.6322 17.544L34.6001 17.4832L34.5516 1.54728L46.5835 1.51065L46.714 44.3905L34.6821 44.4271L34.633 28.2992L14.6651 28.3599L14.7142 44.4879ZM68.4149 44.9644C57.2149 44.9985 49.5797 38.6857 49.5479 28.2538C49.516 17.7578 57.1128 11.4626 68.3128 11.4285C79.5127 11.3944 87.1478 17.6432 87.1798 28.1392C87.2115 38.5711 79.6148 44.9303 68.4149 44.9644ZM68.3826 34.3404C73.8225 34.3239 75.29 32.8474 75.2758 28.1754C75.2616 23.5034 73.7849 21.9719 68.3449 21.9885C62.905 22.0051 61.4377 23.5455 61.4519 28.2175C61.4661 32.8895 62.9426 34.357 68.3826 34.3404ZM104.777 44.8537C94.9213 44.8837 89.462 38.5643 89.4302 28.1323C89.3983 17.6364 94.6912 11.3482 104.163 11.3194C111.779 11.2962 115.374 14.8693 116.35 20.2423L116.99 20.2404L116.933 1.29648L128.965 1.25985L129.095 44.1397L117.831 44.1739L117.805 35.47L117.165 35.4719C116.16 41.875 112.329 44.8307 104.777 44.8537ZM101.59 28.0953C101.603 32.3833 103.528 33.8494 109.096 33.8325C114.472 33.8161 117.029 32.7843 117.014 28.1124L117.013 27.6644C116.999 23.1204 114.436 22.2322 109.06 22.2485C103.492 22.2655 101.577 23.8073 101.59 28.0953ZM144.964 44.0913L132.932 44.128L132.801 1.24817L144.833 1.21154L144.964 44.0913ZM160.731 8.84317L148.699 8.8798L148.676 1.19984L160.708 1.16321L160.731 8.84317ZM160.839 44.043L148.807 44.0796L148.708 11.8238L160.74 11.7872L160.839 44.043ZM176.713 43.9947L164.682 44.0313L164.583 11.7755L175.847 11.7412L175.877 21.5331L176.517 21.5312C177.205 16.1531 180.709 11.0864 189.349 11.0601C198.053 11.0336 202.165 16.2691 202.186 23.245L202.249 43.9169L190.217 43.9536L190.168 27.6976C190.154 23.2177 188.486 21.8147 183.238 21.8307C177.926 21.8469 176.65 23.1948 176.663 27.3548L176.713 43.9947ZM220.131 40.2785C210.531 40.3077 205.139 34.8201 205.111 25.6041C205.083 16.5162 210.826 10.9947 220.362 10.9656C226.89 10.9458 231.25 13.5565 232.163 19.1218L232.803 19.1198L232.78 11.5678L244.044 11.5336L244.126 38.3494C244.161 49.8694 237.329 55.3302 224.913 55.368C213.649 55.4023 207.107 50.6862 207.081 42.2382L219.113 42.2016C219.121 44.8256 219.443 45.4646 225.715 45.4455C230.899 45.4297 232.113 44.658 232.096 39.2181L232.076 32.4341L231.436 32.436C230.618 37.1105 227.235 40.2569 220.131 40.2785ZM217.271 25.5671C217.28 28.7671 218.82 29.9784 224.452 29.9613C229.828 29.9449 232.066 29.2981 232.056 25.9061L232.054 25.4581C232.044 22.0021 229.802 21.305 224.426 21.3213C218.794 21.3385 217.261 22.4311 217.271 25.5671Z"/>
</mask>
<path d="M14.7142 44.4879L2.68225 44.5245L2.5517 1.6447L14.5836 1.60807L14.6322 17.544L34.6001 17.4832L34.5516 1.54728L46.5835 1.51065L46.714 44.3905L34.6821 44.4271L34.633 28.2992L14.6651 28.3599L14.7142 44.4879ZM68.4149 44.9644C57.2149 44.9985 49.5797 38.6857 49.5479 28.2538C49.516 17.7578 57.1128 11.4626 68.3128 11.4285C79.5127 11.3944 87.1478 17.6432 87.1798 28.1392C87.2115 38.5711 79.6148 44.9303 68.4149 44.9644ZM68.3826 34.3404C73.8225 34.3239 75.29 32.8474 75.2758 28.1754C75.2616 23.5034 73.7849 21.9719 68.3449 21.9885C62.905 22.0051 61.4377 23.5455 61.4519 28.2175C61.4661 32.8895 62.9426 34.357 68.3826 34.3404ZM104.777 44.8537C94.9213 44.8837 89.462 38.5643 89.4302 28.1323C89.3983 17.6364 94.6912 11.3482 104.163 11.3194C111.779 11.2962 115.374 14.8693 116.35 20.2423L116.99 20.2404L116.933 1.29648L128.965 1.25985L129.095 44.1397L117.831 44.1739L117.805 35.47L117.165 35.4719C116.16 41.875 112.329 44.8307 104.777 44.8537ZM101.59 28.0953C101.603 32.3833 103.528 33.8494 109.096 33.8325C114.472 33.8161 117.029 32.7843 117.014 28.1124L117.013 27.6644C116.999 23.1204 114.436 22.2322 109.06 22.2485C103.492 22.2655 101.577 23.8073 101.59 28.0953ZM144.964 44.0913L132.932 44.128L132.801 1.24817L144.833 1.21154L144.964 44.0913ZM160.731 8.84317L148.699 8.8798L148.676 1.19984L160.708 1.16321L160.731 8.84317ZM160.839 44.043L148.807 44.0796L148.708 11.8238L160.74 11.7872L160.839 44.043ZM176.713 43.9947L164.682 44.0313L164.583 11.7755L175.847 11.7412L175.877 21.5331L176.517 21.5312C177.205 16.1531 180.709 11.0864 189.349 11.0601C198.053 11.0336 202.165 16.2691 202.186 23.245L202.249 43.9169L190.217 43.9536L190.168 27.6976C190.154 23.2177 188.486 21.8147 183.238 21.8307C177.926 21.8469 176.65 23.1948 176.663 27.3548L176.713 43.9947ZM220.131 40.2785C210.531 40.3077 205.139 34.8201 205.111 25.6041C205.083 16.5162 210.826 10.9947 220.362 10.9656C226.89 10.9458 231.25 13.5565 232.163 19.1218L232.803 19.1198L232.78 11.5678L244.044 11.5336L244.126 38.3494C244.161 49.8694 237.329 55.3302 224.913 55.368C213.649 55.4023 207.107 50.6862 207.081 42.2382L219.113 42.2016C219.121 44.8256 219.443 45.4646 225.715 45.4455C230.899 45.4297 232.113 44.658 232.096 39.2181L232.076 32.4341L231.436 32.436C230.618 37.1105 227.235 40.2569 220.131 40.2785ZM217.271 25.5671C217.28 28.7671 218.82 29.9784 224.452 29.9613C229.828 29.9449 232.066 29.2981 232.056 25.9061L232.054 25.4581C232.044 22.0021 229.802 21.305 224.426 21.3213C218.794 21.3385 217.261 22.4311 217.271 25.5671Z" fill="white" fill-opacity="0.07"/>
<path d="M14.7142 44.4879L14.7385 52.4878C19.1568 52.4744 22.7276 48.8818 22.7142 44.4635L14.7142 44.4879ZM2.68225 44.5245L-5.31772 44.5489C-5.30426 48.9671 -1.71165 52.5379 2.7066 52.5245L2.68225 44.5245ZM2.5517 1.6447L2.52735 -6.35526C-1.89091 -6.34181 -5.46171 -2.7492 -5.44826 1.66906L2.5517 1.6447ZM14.5836 1.60807L22.5836 1.58372C22.5702 -2.83454 18.9776 -6.40534 14.5593 -6.39189L14.5836 1.60807ZM14.6322 17.544L6.6322 17.5684C6.64565 21.9866 10.2383 25.5574 14.6565 25.544L14.6322 17.544ZM34.6001 17.4832L34.6244 25.4832C39.0427 25.4697 42.6135 21.8771 42.6 17.4589L34.6001 17.4832ZM34.5516 1.54728L34.5272 -6.45268C30.1089 -6.43923 26.5381 -2.84662 26.5516 1.57164L34.5516 1.54728ZM46.5835 1.51065L54.5835 1.4863C54.57 -2.93196 50.9774 -6.50276 46.5592 -6.48931L46.5835 1.51065ZM46.714 44.3905L46.7384 52.3904C51.1567 52.377 54.7275 48.7844 54.714 44.3661L46.714 44.3905ZM34.6821 44.4271L26.6821 44.4514C26.6956 48.8697 30.2882 52.4405 34.7065 52.427L34.6821 44.4271ZM34.633 28.2992L42.633 28.2748C42.6195 23.8565 39.0269 20.2857 34.6086 20.2992L34.633 28.2992ZM14.6651 28.3599L14.6407 20.36C10.2225 20.3734 6.65168 23.966 6.66513 28.3843L14.6651 28.3599ZM14.6898 36.4879L2.65789 36.5245L2.7066 52.5245L14.7385 52.4878L14.6898 36.4879ZM10.6822 44.5002L10.5517 1.62035L-5.44826 1.66906L-5.31772 44.5489L10.6822 44.5002ZM2.57606 9.64466L14.608 9.60803L14.5593 -6.39189L2.52735 -6.35526L2.57606 9.64466ZM6.58369 1.63243L6.6322 17.5684L22.6321 17.5196L22.5836 1.58372L6.58369 1.63243ZM14.6565 25.544L34.6244 25.4832L34.5757 9.48324L14.6078 9.54403L14.6565 25.544ZM42.6 17.4589L42.5515 1.52293L26.5516 1.57164L26.6001 17.5076L42.6 17.4589ZM34.5759 9.54724L46.6079 9.51061L46.5592 -6.48931L34.5272 -6.45268L34.5759 9.54724ZM38.5835 1.53501L38.7141 44.4148L54.714 44.3661L54.5835 1.4863L38.5835 1.53501ZM46.6897 36.3905L34.6577 36.4271L34.7065 52.427L46.7384 52.3904L46.6897 36.3905ZM42.6821 44.4027L42.633 28.2748L26.633 28.3235L26.6821 44.4514L42.6821 44.4027ZM34.6086 20.2992L14.6407 20.36L14.6894 36.3599L34.6574 36.2991L34.6086 20.2992ZM6.66513 28.3843L6.71423 44.5122L22.7142 44.4635L22.6651 28.3356L6.66513 28.3843ZM68.3905 36.9644C64.2499 36.977 61.5671 35.8212 60.0399 34.4945C58.6343 33.2734 57.5574 31.3644 57.5479 28.2294L41.548 28.2781C41.5702 35.5751 44.3268 42.0384 49.5468 46.5732C54.6452 51.0023 61.3799 52.9858 68.4393 52.9644L68.3905 36.9644ZM57.5479 28.2294C57.5382 25.0513 58.6107 23.1451 59.9934 21.9325C61.5035 20.6081 64.1767 19.4412 68.3372 19.4285L68.2884 3.42858C61.249 3.45001 54.5238 5.44774 49.4434 9.90343C44.2357 14.4709 41.5257 20.9602 41.548 28.2781L57.5479 28.2294ZM68.3372 19.4285C72.4976 19.4158 75.1779 20.5664 76.696 21.8816C78.0861 23.0859 79.1701 24.9855 79.1798 28.1635L95.1797 28.1148C95.1574 20.7969 92.408 14.3242 87.1725 9.78857C82.0652 5.36389 75.3279 3.40715 68.2884 3.42858L68.3372 19.4285ZM79.1798 28.1635C79.1893 31.2985 78.1241 33.2141 76.726 34.4437C75.2069 35.7797 72.5311 36.9518 68.3905 36.9644L68.4393 52.9644C75.4986 52.9429 82.2211 50.9184 87.2925 46.4583C92.4847 41.8918 95.2019 35.4118 95.1797 28.1148L79.1798 28.1635ZM68.4069 42.3404C71.2435 42.3318 75.7986 42.0831 79.2716 38.9089C83.011 35.4913 83.2839 30.8075 83.2758 28.1511L67.2759 28.1998C67.2784 29.0316 67.203 29.1775 67.2605 28.9702C67.2989 28.8318 67.3933 28.547 67.5985 28.1898C67.8114 27.8193 68.1042 27.4396 68.4774 27.0986C68.8461 26.7616 69.2054 26.5424 69.4829 26.4085C69.617 26.3439 69.725 26.3025 69.7976 26.2775C69.8697 26.2528 69.9106 26.2431 69.9126 26.2426C69.9145 26.2421 69.8844 26.2493 69.8162 26.2599C69.7481 26.2704 69.6494 26.2832 69.5154 26.2954C69.2419 26.3203 68.8654 26.3389 68.3582 26.3405L68.4069 42.3404ZM83.2758 28.1511C83.2677 25.4836 82.9612 20.8328 79.2552 17.4306C75.7718 14.2326 71.2135 13.9797 68.3206 13.9885L68.3693 29.9885C68.8686 29.9869 69.2371 30.0038 69.5021 30.0271C69.7693 30.0506 69.8795 30.0764 69.8753 30.0754C69.8595 30.0717 69.1875 29.9079 68.4348 29.217C68.0691 28.8812 67.7841 28.5102 67.578 28.1521C67.3792 27.8067 67.2879 27.5336 67.2515 27.4045C67.1976 27.2131 67.2733 27.3705 67.2759 28.1998L83.2758 28.1511ZM68.3206 13.9885C65.4277 13.9973 60.871 14.278 57.4071 17.4971C53.7219 20.9218 53.4438 25.5744 53.4519 28.2419L69.4518 28.1932C69.4493 27.3639 69.5241 27.206 69.4713 27.3977C69.4357 27.5271 69.3461 27.8008 69.1494 28.1473C68.9454 28.5066 68.6627 28.8794 68.2991 29.2174C67.5507 29.9129 66.8796 30.0808 66.8639 30.0846C66.8597 30.0856 66.9697 30.0592 67.2368 30.034C67.5016 30.009 67.8701 29.99 68.3693 29.9885L68.3206 13.9885ZM53.4519 28.2419C53.46 30.8983 53.7614 35.5803 57.5215 38.9751C61.0138 42.1281 65.5703 42.349 68.4069 42.3404L68.3582 26.3405C67.851 26.342 67.4744 26.3257 67.2007 26.3024C67.0666 26.2911 66.9679 26.2789 66.8997 26.2687C66.8315 26.2586 66.8013 26.2516 66.8032 26.2521C66.8052 26.2525 66.8462 26.262 66.9185 26.2863C66.9912 26.3108 67.0994 26.3516 67.2339 26.4154C67.5122 26.5475 67.8729 26.7645 68.2436 27.0993C68.6189 27.438 68.914 27.816 69.1291 28.1851C69.3365 28.5411 69.4327 28.8253 69.4719 28.9635C69.5306 29.1704 69.4544 29.025 69.4518 28.1932L53.4519 28.2419ZM116.35 20.2423L108.479 21.6726C109.172 25.486 112.499 28.2541 116.375 28.2423L116.35 20.2423ZM116.99 20.2404L117.015 28.2404C121.433 28.2269 125.004 24.6343 124.99 20.216L116.99 20.2404ZM116.933 1.29648L116.908 -6.70348C112.49 -6.69003 108.919 -3.09742 108.933 1.32083L116.933 1.29648ZM128.965 1.25985L136.965 1.23549C136.951 -3.18276 133.359 -6.75357 128.94 -6.74011L128.965 1.25985ZM129.095 44.1397L129.12 52.1396C133.538 52.1262 137.109 48.5336 137.095 44.1153L129.095 44.1397ZM117.831 44.1739L109.831 44.1983C109.845 48.6166 113.437 52.1874 117.856 52.1739L117.831 44.1739ZM117.805 35.47L125.805 35.4456C125.791 31.0274 122.199 27.4566 117.78 27.47L117.805 35.47ZM117.165 35.4719L117.14 27.472C113.21 27.4839 109.871 30.3492 109.261 34.2321L117.165 35.4719ZM104.753 36.8537C101.611 36.8633 100.138 35.9191 99.3571 35.0546C98.4626 34.0641 97.4421 32.012 97.4302 28.108L81.4303 28.1567C81.4502 34.6846 83.1751 41.0082 87.4822 45.7779C91.9032 50.6736 98.0875 52.8741 104.802 52.8537L104.753 36.8537ZM97.4302 28.108C97.4181 24.1173 98.4228 22.0269 99.2776 21.0409C99.9954 20.2129 101.313 19.3281 104.187 19.3194L104.139 3.31944C97.5411 3.33953 91.4765 5.61325 87.1878 10.5605C83.0362 15.3498 81.4105 21.6514 81.4303 28.1567L97.4302 28.108ZM104.187 19.3194C106.779 19.3115 107.633 19.9122 107.781 20.0293C107.874 20.1034 108.248 20.4021 108.479 21.6726L124.221 18.812C123.476 14.7095 121.565 10.5351 117.713 7.48527C113.915 4.47839 109.163 3.30414 104.139 3.31944L104.187 19.3194ZM116.375 28.2423L117.015 28.2404L116.966 12.2404L116.326 12.2424L116.375 28.2423ZM124.99 20.216L124.933 1.27212L108.933 1.32083L108.99 20.2647L124.99 20.216ZM116.957 9.29644L128.989 9.25981L128.94 -6.74011L116.908 -6.70348L116.957 9.29644ZM120.965 1.2842L121.095 44.164L137.095 44.1153L136.965 1.23549L120.965 1.2842ZM129.071 36.1397L117.807 36.174L117.856 52.1739L129.12 52.1396L129.071 36.1397ZM125.831 44.1496L125.805 35.4456L109.805 35.4943L109.831 44.1983L125.831 44.1496ZM117.78 27.47L117.14 27.472L117.189 43.4719L117.829 43.4699L117.78 27.47ZM109.261 34.2321C109.114 35.1715 108.909 35.6791 108.784 35.9171C108.679 36.1172 108.614 36.1642 108.583 36.1882C108.487 36.2609 107.628 36.845 104.753 36.8537L104.802 52.8537C109.478 52.8394 114.311 51.9342 118.27 48.9225C122.406 45.7762 124.35 41.2916 125.068 36.7118L109.261 34.2321ZM93.5902 28.1197C93.5998 31.27 94.3153 35.8127 98.4036 38.9357C101.854 41.5715 106.128 41.8416 109.12 41.8325L109.071 25.8325C107.979 25.8359 107.427 25.7603 107.218 25.7165C107.024 25.676 107.48 25.7351 108.116 26.2208C108.441 26.4693 108.748 26.7806 109.007 27.1412C109.261 27.4964 109.415 27.8248 109.503 28.0683C109.661 28.5026 109.592 28.612 109.59 28.071L93.5902 28.1197ZM109.12 41.8325C111.785 41.8243 115.945 41.6759 119.41 39.4425C123.892 36.5541 125.026 31.9074 125.014 28.088L109.014 28.1367C109.016 28.6351 108.938 28.4048 109.181 27.8353C109.312 27.5283 109.517 27.1695 109.817 26.8134C110.118 26.4571 110.444 26.1865 110.742 25.994C111.298 25.636 111.61 25.6418 111.241 25.7057C110.878 25.7684 110.214 25.829 109.071 25.8325L109.12 41.8325ZM125.014 28.088L125.013 27.64L109.013 27.6887L109.014 28.1367L125.014 28.088ZM125.013 27.64C125.001 23.7904 123.77 19.1482 119.161 16.3849C115.72 14.3222 111.614 14.2407 109.036 14.2486L109.085 30.2485C110.261 30.2449 110.959 30.2958 111.363 30.3574C111.782 30.4213 111.49 30.4413 110.934 30.1077C110.63 29.9253 110.282 29.658 109.952 29.2901C109.621 28.9209 109.386 28.5368 109.23 28.1926C108.94 27.5497 109.012 27.2397 109.013 27.6887L125.013 27.64ZM109.036 14.2486C105.995 14.2578 101.716 14.5829 98.284 17.2844C94.268 20.4459 93.5806 24.9674 93.5902 28.1197L109.59 28.071C109.589 27.5325 109.658 27.6274 109.51 28.0448C109.428 28.2788 109.282 28.5975 109.039 28.9451C108.793 29.2981 108.498 29.6068 108.181 29.8562C107.558 30.3466 107.104 30.4144 107.278 30.3756C107.472 30.3327 108.008 30.2518 109.085 30.2485L109.036 14.2486ZM144.964 44.0913L144.988 52.0913C149.406 52.0779 152.977 48.4852 152.964 44.067L144.964 44.0913ZM132.932 44.128L124.932 44.1523C124.945 48.5706 128.538 52.1414 132.956 52.1279L132.932 44.128ZM132.801 1.24817L132.777 -6.75179C128.358 -6.73834 124.788 -3.14573 124.801 1.27252L132.801 1.24817ZM144.833 1.21154L152.833 1.18718C152.82 -3.23107 149.227 -6.80188 144.809 -6.78842L144.833 1.21154ZM144.939 36.0914L132.907 36.128L132.956 52.1279L144.988 52.0913L144.939 36.0914ZM140.932 44.1036L140.801 1.22381L124.801 1.27252L124.932 44.1523L140.932 44.1036ZM132.825 9.24813L144.857 9.2115L144.809 -6.78842L132.777 -6.75179L132.825 9.24813ZM136.833 1.23589L136.964 44.1157L152.964 44.067L152.833 1.18718L136.833 1.23589ZM160.731 8.84317L160.756 16.8431C165.174 16.8297 168.745 13.2371 168.731 8.81882L160.731 8.84317ZM148.699 8.8798L140.699 8.90416C140.713 13.3224 144.306 16.8932 148.724 16.8798L148.699 8.8798ZM148.676 1.19984L148.652 -6.80012C144.233 -6.78667 140.663 -3.19406 140.676 1.22419L148.676 1.19984ZM160.708 1.16321L168.708 1.13885C168.694 -3.2794 165.102 -6.8502 160.684 -6.83675L160.708 1.16321ZM160.839 44.043L160.863 52.043C165.281 52.0295 168.852 48.4369 168.838 44.0187L160.839 44.043ZM148.807 44.0796L140.807 44.104C140.82 48.5223 144.413 52.0931 148.831 52.0796L148.807 44.0796ZM148.708 11.8238L148.684 3.82383C144.266 3.83728 140.695 7.42989 140.708 11.8481L148.708 11.8238ZM160.74 11.7872L168.74 11.7628C168.727 7.34455 165.134 3.77375 160.716 3.7872L160.74 11.7872ZM160.707 0.843211L148.675 0.879841L148.724 16.8798L160.756 16.8431L160.707 0.843211ZM156.699 8.85545L156.676 1.17548L140.676 1.22419L140.699 8.90416L156.699 8.85545ZM148.7 9.1998L160.732 9.16317L160.684 -6.83675L148.652 -6.80012L148.7 9.1998ZM152.708 1.18756L152.731 8.86753L168.731 8.81882L168.708 1.13885L152.708 1.18756ZM160.814 36.0431L148.782 36.0797L148.831 52.0796L160.863 52.043L160.814 36.0431ZM156.807 44.0553L156.708 11.7994L140.708 11.8481L140.807 44.104L156.807 44.0553ZM148.733 19.8238L160.765 19.7871L160.716 3.7872L148.684 3.82383L148.733 19.8238ZM152.74 11.8115L152.839 44.0674L168.838 44.0187L168.74 11.7628L152.74 11.8115ZM176.713 43.9947L176.738 51.9946C181.156 51.9812 184.727 48.3886 184.713 43.9703L176.713 43.9947ZM164.682 44.0313L156.682 44.0557C156.695 48.4739 160.288 52.0447 164.706 52.0313L164.682 44.0313ZM164.583 11.7755L164.559 3.7755C160.141 3.78895 156.57 7.38156 156.583 11.7998L164.583 11.7755ZM175.847 11.7412L183.847 11.7168C183.834 7.29856 180.241 3.72776 175.823 3.74121L175.847 11.7412ZM175.877 21.5331L167.877 21.5575C167.891 25.9757 171.483 29.5465 175.901 29.5331L175.877 21.5331ZM176.517 21.5312L176.541 29.5311C180.558 29.5189 183.943 26.5301 184.452 22.5458L176.517 21.5312ZM202.249 43.9169L202.274 51.9169C206.692 51.9035 210.263 48.3108 210.249 43.8926L202.249 43.9169ZM190.217 43.9536L182.217 43.9779C182.231 48.3962 185.823 51.967 190.242 51.9535L190.217 43.9536ZM176.689 35.9947L164.657 36.0314L164.706 52.0313L176.738 51.9946L176.689 35.9947ZM172.681 44.007L172.583 11.7511L156.583 11.7998L156.682 44.0557L172.681 44.007ZM164.608 19.7754L175.872 19.7411L175.823 3.74121L164.559 3.7755L164.608 19.7754ZM167.847 11.7655L167.877 21.5575L183.877 21.5088L183.847 11.7168L167.847 11.7655ZM175.901 29.5331L176.541 29.5311L176.493 13.5312L175.853 13.5332L175.901 29.5331ZM184.452 22.5458C184.627 21.1835 185.079 20.4519 185.464 20.0855C185.752 19.8117 186.687 19.0682 189.374 19.06L189.325 3.0601C183.372 3.07822 178.234 4.88127 174.438 8.49186C170.739 12.0099 169.095 16.5008 168.582 20.5166L184.452 22.5458ZM189.374 19.06C192.086 19.0518 193.016 19.8237 193.29 20.1054C193.621 20.4455 194.18 21.3109 194.186 23.2694L210.186 23.2207C210.171 18.2032 208.664 12.9629 204.758 8.94788C200.795 4.87443 195.317 3.04186 189.325 3.0601L189.374 19.06ZM194.186 23.2694L194.249 43.9413L210.249 43.8926L210.186 23.2207L194.186 23.2694ZM202.225 35.917L190.193 35.9536L190.242 51.9535L202.274 51.9169L202.225 35.917ZM198.217 43.9292L198.168 27.6733L182.168 27.722L182.217 43.9779L198.217 43.9292ZM198.168 27.6733C198.159 24.8284 197.698 20.2385 193.831 16.9692C190.378 14.0499 185.999 13.8223 183.214 13.8308L183.262 29.8307C184.28 29.8276 184.711 29.9009 184.793 29.9193C184.838 29.9293 184.23 29.8039 183.501 29.1872C183.138 28.8806 182.833 28.5245 182.597 28.1526C182.367 27.7908 182.247 27.4831 182.188 27.297C182.091 26.9873 182.166 27.0214 182.168 27.722L198.168 27.6733ZM183.214 13.8308C180.533 13.8389 176.096 14.0332 172.685 17.019C168.865 20.3625 168.656 25.0141 168.663 27.3791L184.663 27.3304C184.661 26.608 184.728 26.5904 184.637 26.9118C184.581 27.1117 184.46 27.4556 184.217 27.8647C183.967 28.2876 183.632 28.7 183.223 29.0586C182.82 29.4109 182.436 29.6319 182.15 29.7626C182.012 29.826 181.901 29.8662 181.828 29.89C181.755 29.9137 181.714 29.9228 181.713 29.9231C181.712 29.9233 181.742 29.9164 181.811 29.9064C181.88 29.8964 181.979 29.8844 182.113 29.8729C182.385 29.8495 182.76 29.8322 183.262 29.8307L183.214 13.8308ZM168.663 27.3791L168.713 44.019L184.713 43.9703L184.663 27.3304L168.663 27.3791ZM232.163 19.1218L224.269 20.4168C224.904 24.2927 228.26 27.1337 232.187 27.1217L232.163 19.1218ZM232.803 19.1198L232.827 27.1198C237.246 27.1063 240.816 23.5137 240.803 19.0955L232.803 19.1198ZM232.78 11.5678L232.756 3.56788C228.337 3.58133 224.767 7.17394 224.78 11.5922L232.78 11.5678ZM244.044 11.5336L252.044 11.5092C252.03 7.09094 248.438 3.52014 244.02 3.53359L244.044 11.5336ZM207.081 42.2382L207.057 34.2383C202.639 34.2517 199.068 37.8443 199.081 42.2626L207.081 42.2382ZM219.113 42.2016L227.113 42.1772C227.1 37.759 223.507 34.1882 219.089 34.2016L219.113 42.2016ZM232.076 32.4341L240.075 32.4097C240.062 27.9915 236.469 24.4207 232.051 24.4341L232.076 32.4341ZM231.436 32.436L231.411 24.4361C227.534 24.4479 224.223 27.2382 223.555 31.0574L231.436 32.436ZM220.107 32.2785C216.82 32.2885 215.322 31.3775 214.653 30.7164C213.988 30.0597 213.12 28.6423 213.111 25.5798L197.111 25.6285C197.129 31.7819 198.971 37.7164 203.41 42.1001C207.844 46.4795 213.843 48.2977 220.156 48.2784L220.107 32.2785ZM213.111 25.5798C213.102 22.766 213.945 21.3745 214.691 20.6582C215.483 19.8976 217.136 18.9755 220.386 18.9656L220.338 2.96568C214.053 2.98482 208.066 4.83799 203.609 9.11739C199.106 13.4411 197.092 19.3543 197.111 25.6285L213.111 25.5798ZM220.386 18.9656C222.69 18.9586 223.673 19.4338 223.933 19.607C224.03 19.6722 224.047 19.7034 224.06 19.7235C224.079 19.7544 224.191 19.9415 224.269 20.4168L240.057 17.8267C239.273 13.0435 236.825 8.97034 232.804 6.29154C229.024 3.77302 224.562 2.95282 220.338 2.96568L220.386 18.9656ZM232.187 27.1217L232.827 27.1198L232.779 11.1198L232.139 11.1218L232.187 27.1217ZM240.803 19.0955L240.78 11.5435L224.78 11.5922L224.803 19.1442L240.803 19.0955ZM232.804 19.5678L244.068 19.5335L244.02 3.53359L232.756 3.56788L232.804 19.5678ZM236.044 11.5579L236.126 38.3738L252.126 38.3251L252.044 11.5092L236.044 11.5579ZM236.126 38.3738C236.138 42.508 234.976 44.2328 233.961 45.1085C232.72 46.1799 230.101 47.3522 224.889 47.368L224.938 63.368C232.142 63.346 239.146 61.769 244.416 57.2206C249.912 52.4764 252.148 45.7108 252.126 38.3251L236.126 38.3738ZM224.889 47.368C220.217 47.3823 217.677 46.3842 216.509 45.5291C215.684 44.9252 215.087 44.1156 215.081 42.2139L199.081 42.2626C199.101 48.8088 201.788 54.5813 207.057 58.4388C211.983 62.0452 218.346 63.388 224.938 63.368L224.889 47.368ZM207.106 50.2382L219.138 50.2016L219.089 34.2016L207.057 34.2383L207.106 50.2382ZM211.113 42.2259C211.115 42.7698 211.093 44.4265 211.607 46.1288C212.295 48.4097 213.799 50.473 216.152 51.7924C218.016 52.8376 219.945 53.1365 221.182 53.2697C222.547 53.4167 224.101 53.4505 225.739 53.4455L225.691 37.4455C224.193 37.4501 223.355 37.4112 222.895 37.3617C222.683 37.3388 222.692 37.3276 222.842 37.3657C222.989 37.4031 223.422 37.5252 223.978 37.8371C224.576 38.1724 225.254 38.6932 225.848 39.4511C226.436 40.2011 226.756 40.9458 226.925 41.5075C227.081 42.0247 227.111 42.3918 227.116 42.4474C227.12 42.5013 227.114 42.4587 227.113 42.1772L211.113 42.2259ZM225.739 53.4455C227.119 53.4413 228.784 53.3953 230.39 53.0911C232.062 52.7745 234.305 52.0662 236.277 50.2487C238.297 48.3871 239.206 46.13 239.632 44.2753C240.032 42.5352 240.101 40.7383 240.096 39.1937L224.096 39.2424C224.098 39.785 224.083 40.1673 224.063 40.4325C224.042 40.7027 224.021 40.7663 224.038 40.6924C224.08 40.5129 224.364 39.4697 225.434 38.483C225.93 38.0263 226.427 37.7406 226.812 37.5723C227.173 37.4147 227.408 37.3714 227.413 37.3705C227.416 37.3698 227.293 37.3924 226.977 37.4122C226.665 37.4318 226.252 37.4438 225.691 37.4455L225.739 53.4455ZM240.096 39.1937L240.075 32.4097L224.076 32.4584L224.096 39.2424L240.096 39.1937ZM232.051 24.4341L231.411 24.4361L231.46 40.436L232.1 40.4341L232.051 24.4341ZM223.555 31.0574C223.486 31.4554 223.395 31.6298 223.373 31.6683C223.362 31.6882 223.368 31.682 223.348 31.6966C223.308 31.7267 222.549 32.2711 220.107 32.2785L220.156 48.2784C224.818 48.2643 229.302 47.2247 232.933 44.5076C236.689 41.6975 238.623 37.7752 239.316 33.8146L223.555 31.0574ZM209.271 25.5915C209.279 28.4663 210.063 32.8951 214.427 35.7004C217.672 37.7857 221.623 37.9699 224.476 37.9612L224.428 21.9613C223.259 21.9649 222.615 21.9 222.312 21.8478C221.989 21.7923 222.407 21.8095 223.078 22.2409C223.44 22.4731 223.835 22.8004 224.2 23.2374C224.566 23.6746 224.823 24.128 224.994 24.5402C225.311 25.3043 225.271 25.781 225.271 25.5428L209.271 25.5915ZM224.476 37.9612C226.938 37.9538 230.631 37.8951 233.722 36.418C235.612 35.5153 237.437 34.0323 238.657 31.7888C239.801 29.6844 240.061 27.55 240.056 25.8818L224.056 25.9305C224.056 25.9253 224.055 25.7415 224.118 25.4354C224.183 25.1174 224.32 24.6613 224.599 24.148C225.234 22.9803 226.166 22.2961 226.825 21.9811C227.322 21.7436 227.507 21.7886 226.956 21.8548C226.448 21.9158 225.66 21.9576 224.428 21.9613L224.476 37.9612ZM240.056 25.8818L240.054 25.4338L224.054 25.4825L224.056 25.9305L240.056 25.8818ZM240.054 25.4338C240.049 23.765 239.781 21.6527 238.663 19.5692C237.47 17.345 235.677 15.8366 233.771 14.9029C230.632 13.3658 226.901 13.3137 224.401 13.3214L224.45 29.3213C225.666 29.3176 226.436 29.3579 226.922 29.4167C227.448 29.4804 227.244 29.5225 226.733 29.2723C226.061 28.9428 225.166 28.2557 224.564 27.1336C224.301 26.6426 224.173 26.2115 224.112 25.9179C224.082 25.7733 224.068 25.6615 224.061 25.5901C224.058 25.5541 224.056 25.5268 224.055 25.5091C224.055 25.5002 224.055 25.4935 224.054 25.4891C224.054 25.4869 224.054 25.4852 224.054 25.4841C224.054 25.483 224.054 25.4825 224.054 25.4825L240.054 25.4338ZM224.401 13.3214C221.632 13.3298 217.739 13.4955 214.544 15.4586C212.617 16.6428 211.121 18.3503 210.226 20.4624C209.412 22.3833 209.266 24.2388 209.271 25.5915L225.271 25.5428C225.27 25.3275 225.312 25.8704 224.959 26.7039C224.768 27.153 224.486 27.6336 224.092 28.0877C223.701 28.5395 223.286 28.8664 222.921 29.0907C222.253 29.5007 221.856 29.5062 222.228 29.4449C222.572 29.3885 223.251 29.3249 224.45 29.3213L224.401 13.3214Z" fill="url(#paint0_radial_1_4005)" mask="url(#path-1-outside-1_1_4005)"/>
<path d="M14.7142 44.4879L2.68225 44.5245L2.5517 1.6447L14.5836 1.60807L14.6322 17.544L34.6001 17.4832L34.5516 1.54728L46.5835 1.51065L46.714 44.3905L34.6821 44.4271L34.633 28.2992L14.6651 28.3599L14.7142 44.4879ZM68.4149 44.9644C57.2149 44.9985 49.5797 38.6857 49.5479 28.2538C49.516 17.7578 57.1128 11.4626 68.3128 11.4285C79.5127 11.3944 87.1478 17.6432 87.1798 28.1392C87.2115 38.5711 79.6148 44.9303 68.4149 44.9644ZM68.3826 34.3404C73.8225 34.3239 75.29 32.8474 75.2758 28.1754C75.2616 23.5034 73.7849 21.9719 68.3449 21.9885C62.905 22.0051 61.4377 23.5455 61.4519 28.2175C61.4661 32.8895 62.9426 34.357 68.3826 34.3404ZM104.777 44.8537C94.9213 44.8837 89.462 38.5643 89.4302 28.1323C89.3983 17.6364 94.6912 11.3482 104.163 11.3194C111.779 11.2962 115.374 14.8693 116.35 20.2423L116.99 20.2404L116.933 1.29648L128.965 1.25985L129.095 44.1397L117.831 44.1739L117.805 35.47L117.165 35.4719C116.16 41.875 112.329 44.8307 104.777 44.8537ZM101.59 28.0953C101.603 32.3833 103.528 33.8494 109.096 33.8325C114.472 33.8161 117.029 32.7843 117.014 28.1124L117.013 27.6644C116.999 23.1204 114.436 22.2322 109.06 22.2485C103.492 22.2655 101.577 23.8073 101.59 28.0953ZM144.964 44.0913L132.932 44.128L132.801 1.24817L144.833 1.21154L144.964 44.0913ZM160.731 8.84317L148.699 8.8798L148.676 1.19984L160.708 1.16321L160.731 8.84317ZM160.839 44.043L148.807 44.0796L148.708 11.8238L160.74 11.7872L160.839 44.043ZM176.713 43.9947L164.682 44.0313L164.583 11.7755L175.847 11.7412L175.877 21.5331L176.517 21.5312C177.205 16.1531 180.709 11.0864 189.349 11.0601C198.053 11.0336 202.165 16.2691 202.186 23.245L202.249 43.9169L190.217 43.9536L190.168 27.6976C190.154 23.2177 188.486 21.8147 183.238 21.8307C177.926 21.8469 176.65 23.1948 176.663 27.3548L176.713 43.9947ZM220.131 40.2785C210.531 40.3077 205.139 34.8201 205.111 25.6041C205.083 16.5162 210.826 10.9947 220.362 10.9656C226.89 10.9458 231.25 13.5565 232.163 19.1218L232.803 19.1198L232.78 11.5678L244.044 11.5336L244.126 38.3494C244.161 49.8694 237.329 55.3302 224.913 55.368C213.649 55.4023 207.107 50.6862 207.081 42.2382L219.113 42.2016C219.121 44.8256 219.443 45.4646 225.715 45.4455C230.899 45.4297 232.113 44.658 232.096 39.2181L232.076 32.4341L231.436 32.436C230.618 37.1105 227.235 40.2569 220.131 40.2785ZM217.271 25.5671C217.28 28.7671 218.82 29.9784 224.452 29.9613C229.828 29.9449 232.066 29.2981 232.056 25.9061L232.054 25.4581C232.044 22.0021 229.802 21.305 224.426 21.3213C218.794 21.3385 217.261 22.4311 217.271 25.5671Z" fill="#204AF8"/>
<defs>
<radialGradient id="paint0_radial_1_4005" cx="0" cy="0" r="1" gradientUnits="userSpaceOnUse" gradientTransform="translate(123.696 22.656) rotate(-0.174431) scale(123 21.5)">
<stop stop-color="white"/>
<stop offset="1" stop-color="white" stop-opacity="0.99"/>
</radialGradient>
</defs>
</svg>
