<svg width="223" height="47" viewBox="0 0 223 47" fill="none" xmlns="http://www.w3.org/2000/svg">
<mask id="path-1-outside-1_1_4009" maskUnits="userSpaceOnUse" x="-7.54695" y="-7.88596" width="238.22" height="63.2079" fill="black">
<rect fill="white" x="-7.54695" y="-7.88596" width="238.22" height="63.2079"/>
<path d="M18.4009 38.2543C8.56332 38.4711 2.48757 35.1001 2.30778 26.9421L2.30143 26.6542L11.3232 26.4553L11.3455 27.4631C11.393 29.6226 12.1736 30.1815 18.2201 30.0482C23.6908 29.9277 24.2571 29.4831 24.2254 28.0434C24.2 26.8917 23.5656 26.4256 20.9188 26.1478L10.8116 25.0263C4.79511 24.3427 1.70098 21.1941 1.58676 16.0113C1.47359 10.8766 5.33817 5.4141 16.9514 5.15816C27.1729 4.93288 32.166 9.28792 32.3247 16.4862L32.331 16.7741L23.3092 16.9729L23.2934 16.2531C23.2426 13.9497 22.2179 13.2041 16.1714 13.3373C11.5645 13.4389 10.5705 14.0849 10.6012 15.4766C10.6234 16.4843 11.2098 16.9515 12.9427 17.1534L23.053 18.4189C30.9485 19.3972 33.1488 23.3817 33.2398 27.5087C33.3614 33.0273 29.2463 38.0152 18.4009 38.2543ZM53.6903 36.9964L47.3558 37.136C41.3093 37.2693 37.6457 34.4213 37.5071 28.1348L37.34 20.5527L33.7889 20.6309L33.626 13.2407L37.1771 13.1624L37.0851 8.98746L46.1069 8.78863L46.1989 12.9636L53.1572 12.8103L53.3201 20.2005L46.3618 20.3538L46.5004 26.6403C46.5427 28.5598 47.1291 29.027 49.1926 28.9815L53.5115 28.8864L53.6903 36.9964ZM64.8656 36.7501L55.8438 36.9489L55.3107 12.7628L63.7567 12.5767L63.8963 18.9111L64.3762 18.9005C64.9602 14.9027 67.3932 12.0164 72.192 11.9106C77.5188 11.7932 79.7074 15.2499 79.8143 20.0967L79.92 24.8955L70.8982 25.0943L70.8358 22.263C70.7914 20.2475 70.0077 19.5446 67.6563 19.5964C65.2089 19.6504 64.5049 20.3861 64.5472 22.3056L64.8656 36.7501ZM89.9201 36.678C84.4494 36.7986 81.3231 34.3709 81.2322 30.2439C81.1571 26.8367 83.4546 24.3375 88.9136 23.6891L98.7301 22.5125L98.7195 22.0326C98.6656 19.5852 97.6014 19.2245 94.3861 19.2954C91.4109 19.361 90.5118 19.9569 90.5562 21.9724L90.5604 22.1644L81.5386 22.3632L81.5365 22.2673C81.3948 15.8368 86.6785 11.5914 94.8845 11.4105C103.33 11.2244 107.5 15.2615 107.65 22.0278L107.953 35.8005L99.5072 35.9866L99.3951 30.8999L98.9152 30.9104C98.0785 34.3377 95.1508 36.5628 89.9201 36.678ZM90.2893 29.4681C90.3062 30.236 91.0772 30.363 92.4689 30.3323C96.8358 30.2361 98.5997 29.6691 98.7921 27.5043L91.4209 28.531C90.6072 28.6449 90.2777 28.9403 90.2893 29.4681ZM128.719 35.3428L122.384 35.4824C116.338 35.6157 112.674 32.7677 112.536 26.4812L112.369 18.8991L108.818 18.9774L108.655 11.5871L112.206 11.5089L112.114 7.33389L121.136 7.13506L121.228 11.31L128.186 11.1567L128.349 18.5469L121.39 18.7003L121.529 24.9867C121.571 26.9063 122.158 27.3735 124.221 27.328L128.54 27.2328L128.719 35.3428ZM144.368 35.4781C136.162 35.6589 130.326 32.2827 130.126 23.2129C129.953 15.3428 135.56 10.5141 143.622 10.3364C151.972 10.1524 157.39 14.21 157.562 21.9841C157.58 22.7999 157.545 23.4248 157.468 24.2907L138.513 24.7084C138.721 27.6326 140.035 28.4198 143.874 28.3352C147.521 28.2548 148.467 27.6098 148.436 26.1702L148.424 25.6423L157.446 25.4435L157.458 26.0193C157.577 31.394 152.526 35.2983 144.368 35.4781ZM143.582 17.2509C140.271 17.3239 138.895 18.0744 138.556 20.1464L148.778 19.9211C148.397 17.865 146.941 17.1769 143.582 17.2509ZM170.946 31.7235C163.748 31.8822 159.626 27.844 159.474 20.9337C159.323 14.1193 163.551 9.89715 170.702 9.73957C175.596 9.63169 178.903 11.5273 179.667 15.6875L180.147 15.6769L180.022 10.0143L188.468 9.82813L188.911 29.9352C189.101 38.5732 184.057 42.7653 174.747 42.9705C166.301 43.1566 161.328 39.7134 161.188 33.3789L170.21 33.1801C170.253 35.1476 170.504 35.6222 175.207 35.5186C179.094 35.4329 179.993 34.8369 179.903 30.7579L179.791 25.6712L179.311 25.6817C178.764 29.1986 176.273 31.6061 170.946 31.7235ZM168.591 20.7327C168.644 23.1321 169.816 24.0185 174.039 23.9255C178.07 23.8366 179.739 23.3197 179.683 20.7764L179.676 20.4404C179.618 17.8491 177.927 17.3582 173.896 17.447C169.673 17.5401 168.54 18.3813 168.591 20.7327ZM197.395 41.9912L193.028 42.0875L192.849 33.9295L199.855 33.775C200.575 33.7592 201.148 33.6505 201.528 33.4501L189.436 9.80679L199.706 9.58046L204.09 18.9901L205.94 24.5187L206.564 24.505L208.023 18.8074L211.415 9.3224L221.492 9.1003L210.577 34.499C208.112 40.2667 204.45 41.8358 197.395 41.9912Z"/>
</mask>
<path d="M18.4009 38.2543C8.56332 38.4711 2.48757 35.1001 2.30778 26.9421L2.30143 26.6542L11.3232 26.4553L11.3455 27.4631C11.393 29.6226 12.1736 30.1815 18.2201 30.0482C23.6908 29.9277 24.2571 29.4831 24.2254 28.0434C24.2 26.8917 23.5656 26.4256 20.9188 26.1478L10.8116 25.0263C4.79511 24.3427 1.70098 21.1941 1.58676 16.0113C1.47359 10.8766 5.33817 5.4141 16.9514 5.15816C27.1729 4.93288 32.166 9.28792 32.3247 16.4862L32.331 16.7741L23.3092 16.9729L23.2934 16.2531C23.2426 13.9497 22.2179 13.2041 16.1714 13.3373C11.5645 13.4389 10.5705 14.0849 10.6012 15.4766C10.6234 16.4843 11.2098 16.9515 12.9427 17.1534L23.053 18.4189C30.9485 19.3972 33.1488 23.3817 33.2398 27.5087C33.3614 33.0273 29.2463 38.0152 18.4009 38.2543ZM53.6903 36.9964L47.3558 37.136C41.3093 37.2693 37.6457 34.4213 37.5071 28.1348L37.34 20.5527L33.7889 20.6309L33.626 13.2407L37.1771 13.1624L37.0851 8.98746L46.1069 8.78863L46.1989 12.9636L53.1572 12.8103L53.3201 20.2005L46.3618 20.3538L46.5004 26.6403C46.5427 28.5598 47.1291 29.027 49.1926 28.9815L53.5115 28.8864L53.6903 36.9964ZM64.8656 36.7501L55.8438 36.9489L55.3107 12.7628L63.7567 12.5767L63.8963 18.9111L64.3762 18.9005C64.9602 14.9027 67.3932 12.0164 72.192 11.9106C77.5188 11.7932 79.7074 15.2499 79.8143 20.0967L79.92 24.8955L70.8982 25.0943L70.8358 22.263C70.7914 20.2475 70.0077 19.5446 67.6563 19.5964C65.2089 19.6504 64.5049 20.3861 64.5472 22.3056L64.8656 36.7501ZM89.9201 36.678C84.4494 36.7986 81.3231 34.3709 81.2322 30.2439C81.1571 26.8367 83.4546 24.3375 88.9136 23.6891L98.7301 22.5125L98.7195 22.0326C98.6656 19.5852 97.6014 19.2245 94.3861 19.2954C91.4109 19.361 90.5118 19.9569 90.5562 21.9724L90.5604 22.1644L81.5386 22.3632L81.5365 22.2673C81.3948 15.8368 86.6785 11.5914 94.8845 11.4105C103.33 11.2244 107.5 15.2615 107.65 22.0278L107.953 35.8005L99.5072 35.9866L99.3951 30.8999L98.9152 30.9104C98.0785 34.3377 95.1508 36.5628 89.9201 36.678ZM90.2893 29.4681C90.3062 30.236 91.0772 30.363 92.4689 30.3323C96.8358 30.2361 98.5997 29.6691 98.7921 27.5043L91.4209 28.531C90.6072 28.6449 90.2777 28.9403 90.2893 29.4681ZM128.719 35.3428L122.384 35.4824C116.338 35.6157 112.674 32.7677 112.536 26.4812L112.369 18.8991L108.818 18.9774L108.655 11.5871L112.206 11.5089L112.114 7.33389L121.136 7.13506L121.228 11.31L128.186 11.1567L128.349 18.5469L121.39 18.7003L121.529 24.9867C121.571 26.9063 122.158 27.3735 124.221 27.328L128.54 27.2328L128.719 35.3428ZM144.368 35.4781C136.162 35.6589 130.326 32.2827 130.126 23.2129C129.953 15.3428 135.56 10.5141 143.622 10.3364C151.972 10.1524 157.39 14.21 157.562 21.9841C157.58 22.7999 157.545 23.4248 157.468 24.2907L138.513 24.7084C138.721 27.6326 140.035 28.4198 143.874 28.3352C147.521 28.2548 148.467 27.6098 148.436 26.1702L148.424 25.6423L157.446 25.4435L157.458 26.0193C157.577 31.394 152.526 35.2983 144.368 35.4781ZM143.582 17.2509C140.271 17.3239 138.895 18.0744 138.556 20.1464L148.778 19.9211C148.397 17.865 146.941 17.1769 143.582 17.2509ZM170.946 31.7235C163.748 31.8822 159.626 27.844 159.474 20.9337C159.323 14.1193 163.551 9.89715 170.702 9.73957C175.596 9.63169 178.903 11.5273 179.667 15.6875L180.147 15.6769L180.022 10.0143L188.468 9.82813L188.911 29.9352C189.101 38.5732 184.057 42.7653 174.747 42.9705C166.301 43.1566 161.328 39.7134 161.188 33.3789L170.21 33.1801C170.253 35.1476 170.504 35.6222 175.207 35.5186C179.094 35.4329 179.993 34.8369 179.903 30.7579L179.791 25.6712L179.311 25.6817C178.764 29.1986 176.273 31.6061 170.946 31.7235ZM168.591 20.7327C168.644 23.1321 169.816 24.0185 174.039 23.9255C178.07 23.8366 179.739 23.3197 179.683 20.7764L179.676 20.4404C179.618 17.8491 177.927 17.3582 173.896 17.447C169.673 17.5401 168.54 18.3813 168.591 20.7327ZM197.395 41.9912L193.028 42.0875L192.849 33.9295L199.855 33.775C200.575 33.7592 201.148 33.6505 201.528 33.4501L189.436 9.80679L199.706 9.58046L204.09 18.9901L205.94 24.5187L206.564 24.505L208.023 18.8074L211.415 9.3224L221.492 9.1003L210.577 34.499C208.112 40.2667 204.45 41.8358 197.395 41.9912Z" fill="white" fill-opacity="0.07"/>
<path d="M2.30143 26.6542L2.12516 18.6561C-2.29204 18.7535 -5.79398 22.4132 -5.69663 26.8304L2.30143 26.6542ZM11.3232 26.4553L19.3213 26.2791C19.2239 21.8619 15.5642 18.3599 11.147 18.4573L11.3232 26.4553ZM20.9188 26.1478L20.0365 34.099C20.0523 34.1008 20.0681 34.1025 20.0839 34.1041L20.9188 26.1478ZM10.8116 25.0263L9.90848 32.9751C9.91542 32.9759 9.92236 32.9767 9.9293 32.9775L10.8116 25.0263ZM32.331 16.7741L32.5073 24.7722C36.9245 24.6748 40.4264 21.015 40.3291 16.5978L32.331 16.7741ZM23.3092 16.9729L15.3112 17.1492C15.4085 21.5664 19.0683 25.0683 23.4855 24.971L23.3092 16.9729ZM12.9427 17.1534L13.9363 9.21534C13.9137 9.21251 13.891 9.20977 13.8684 9.20713L12.9427 17.1534ZM23.053 18.4189L22.0594 26.357L22.0693 26.3582L23.053 18.4189ZM18.2247 30.2562C14.0216 30.3488 11.9583 29.6042 11.1502 29.069C10.839 28.8629 10.7183 28.697 10.6334 28.5314C10.5316 28.3329 10.3291 27.8219 10.3058 26.7658L-5.69028 27.1184C-5.55084 33.4452 -2.93441 38.9315 2.31513 42.4085C7.04933 45.5441 12.9427 46.3765 18.5772 46.2523L18.2247 30.2562ZM10.3058 26.7658L10.2995 26.4779L-5.69663 26.8304L-5.69028 27.1184L10.3058 26.7658ZM2.4777 34.6522L11.4995 34.4534L11.147 18.4573L2.12516 18.6561L2.4777 34.6522ZM3.32518 26.6316L3.34739 27.6394L19.3435 27.2868L19.3213 26.2791L3.32518 26.6316ZM3.34739 27.6394C3.36506 28.4408 3.43434 30.3451 4.41258 32.3314C5.59237 34.7269 7.5364 36.2117 9.4938 37.0156C11.146 37.6942 12.812 37.8949 14.0198 37.983C15.3245 38.0782 16.8053 38.0814 18.3964 38.0463L18.0438 22.0502C16.6116 22.0817 15.7274 22.0651 15.1836 22.0254C14.543 21.9787 14.8772 21.9297 15.5725 22.2153C15.9885 22.3861 16.5987 22.7018 17.2329 23.26C17.8926 23.8407 18.4076 24.534 18.7662 25.2622C19.3958 26.5405 19.3496 27.5651 19.3435 27.2868L3.34739 27.6394ZM18.3964 38.0463C19.8323 38.0147 21.1315 37.9589 22.2567 37.8479C23.2868 37.7462 24.6897 37.555 26.0801 37.0367C27.633 36.458 29.7471 35.2467 31.0938 32.7762C32.2764 30.6069 32.238 28.528 32.2234 27.8672L16.2273 28.2197C16.2263 28.1719 16.2173 27.8187 16.2941 27.3199C16.3764 26.7857 16.5703 25.9899 17.0456 25.118C18.1242 23.1395 19.7607 22.3169 20.4921 22.0443C21.0611 21.8322 21.2986 21.8647 20.685 21.9253C20.1663 21.9765 19.3432 22.0215 18.0438 22.0502L18.3964 38.0463ZM32.2234 27.8672C32.2023 26.9105 32.0485 25.3778 31.2338 23.739C30.3572 21.9758 29.0372 20.7266 27.6674 19.9058C25.4873 18.5992 23.013 18.3237 21.7537 18.1915L20.0839 34.1041C20.5862 34.1569 20.756 34.1959 20.7317 34.1902C20.7073 34.1845 20.5745 34.1529 20.3698 34.0779C20.1654 34.003 19.8357 33.8655 19.4428 33.63C18.5656 33.1044 17.5744 32.205 16.9067 30.8618C16.3007 29.643 16.2357 28.6005 16.2273 28.2197L32.2234 27.8672ZM21.8011 18.1966L11.694 17.0751L9.9293 32.9775L20.0365 34.099L21.8011 18.1966ZM11.7148 17.0774C9.85188 16.8657 9.48041 16.3887 9.60665 16.5133C9.66775 16.5736 9.69706 16.6385 9.69172 16.6247C9.67746 16.5878 9.59632 16.3571 9.58481 15.8351L-6.4113 16.1876C-6.31845 20.4007 -4.94933 24.6261 -1.63498 27.8986C1.571 31.0642 5.75486 32.5032 9.90848 32.9751L11.7148 17.0774ZM9.58481 15.8351C9.57615 15.442 9.65523 15.1881 10.0475 14.8553C10.5959 14.39 12.4528 13.2592 17.1276 13.1562L16.7751 -2.8399C9.83672 -2.68699 3.95477 -0.958503 -0.304143 2.65512C-4.71918 6.4012 -6.5158 11.4459 -6.4113 16.1876L9.58481 15.8351ZM17.1276 13.1562C21.2303 13.0658 22.9686 13.9441 23.5307 14.3769C23.8155 14.5962 24.2903 15.0141 24.3266 16.6624L40.3227 16.3099C40.2004 10.76 38.0993 5.40126 33.2925 1.69984C28.7629 -1.78813 22.8939 -2.97476 16.7751 -2.8399L17.1276 13.1562ZM24.3266 16.6624L24.333 16.9504L40.3291 16.5978L40.3227 16.3099L24.3266 16.6624ZM32.1548 8.77604L23.1329 8.97488L23.4855 24.971L32.5073 24.7722L32.1548 8.77604ZM31.3073 16.7967L31.2914 16.0768L15.2953 16.4294L15.3112 17.1492L31.3073 16.7967ZM31.2914 16.0768C31.2691 15.0657 31.1465 13.1744 30.1516 11.2029C29.0098 8.94017 27.1867 7.45036 25.2603 6.58454C23.5804 5.82956 21.8741 5.56726 20.561 5.44643C19.174 5.31881 17.6307 5.30322 15.9951 5.33927L16.3477 21.3354C17.7354 21.3048 18.5875 21.3324 19.0949 21.3791C19.676 21.4326 19.3628 21.4757 18.7013 21.1784C18.3157 21.0051 17.7785 20.702 17.2236 20.1964C16.6517 19.6752 16.1949 19.0604 15.8673 18.4111C15.5534 17.7891 15.4168 17.2529 15.3553 16.922C15.3245 16.756 15.31 16.628 15.3031 16.55C15.2995 16.5101 15.2976 16.4797 15.2966 16.4602C15.2955 16.4406 15.2953 16.43 15.2953 16.4294L31.2914 16.0768ZM15.9951 5.33927C13.7565 5.3886 10.9204 5.54116 8.52232 6.5587C7.08289 7.16948 5.29647 8.2941 4.02316 10.3352C2.76238 12.3563 2.57477 14.3672 2.60311 15.6529L18.5992 15.3003C18.6122 15.8901 18.5374 17.2984 17.5983 18.8037C16.6467 20.3292 15.391 21.025 14.7721 21.2876C14.236 21.5151 13.9873 21.5038 14.3879 21.4515C14.7337 21.4064 15.3453 21.3575 16.3477 21.3354L15.9951 5.33927ZM2.60311 15.6529C2.65344 17.9368 3.5211 20.9607 6.40404 23.0718C8.53829 24.6346 10.8995 24.9695 12.017 25.0997L13.8684 9.20713C13.701 9.18764 13.8216 9.18933 14.106 9.27294C14.3847 9.35493 15.0712 9.58735 15.8568 10.1626C16.7251 10.7985 17.5105 11.7059 18.0241 12.8435C18.5021 13.9023 18.5885 14.8145 18.5992 15.3003L2.60311 15.6529ZM11.9491 25.0914L22.0594 26.357L24.0466 10.4809L13.9363 9.21534L11.9491 25.0914ZM22.0693 26.3582C24.8547 26.7033 25.3965 27.4233 25.2657 27.2852C25.0765 27.0855 25.2264 26.9912 25.2417 27.685L41.2378 27.3324C41.1622 23.8992 40.1665 19.7491 36.8805 16.2809C33.6529 12.8742 29.1468 11.1128 24.0367 10.4796L22.0693 26.3582ZM25.2417 27.685C25.2542 28.2537 25.1296 28.4515 24.8233 28.7058C24.3119 29.1303 22.563 30.1606 18.2247 30.2562L18.5772 46.2523C25.0842 46.1089 30.8156 44.5257 35.0427 41.0169C39.4749 37.3378 41.3469 32.2823 41.2378 27.3324L25.2417 27.685ZM53.6903 36.9964L53.8666 44.9944C58.2838 44.8971 61.7857 41.2373 61.6883 36.8201L53.6903 36.9964ZM37.34 20.5527L45.3381 20.3764C45.2407 15.9592 41.5809 12.4572 37.1637 12.5546L37.34 20.5527ZM33.7889 20.6309L25.7908 20.8072C25.8882 25.2244 29.5479 28.7263 33.9651 28.629L33.7889 20.6309ZM33.626 13.2407L33.4497 5.24266C29.0325 5.34001 25.5306 8.99978 25.6279 13.417L33.626 13.2407ZM37.1771 13.1624L37.3534 21.1605C41.7706 21.0632 45.2725 17.4034 45.1752 12.9862L37.1771 13.1624ZM37.0851 8.98746L36.9088 0.989404C32.4916 1.08676 28.9897 4.74653 29.0871 9.16373L37.0851 8.98746ZM46.1069 8.78863L54.105 8.61236C54.0076 4.19515 50.3479 0.69322 45.9307 0.790571L46.1069 8.78863ZM46.1989 12.9636L38.2009 13.1399C38.2982 17.5571 41.958 21.059 46.3752 20.9617L46.1989 12.9636ZM53.1572 12.8103L61.1553 12.634C61.058 8.21678 57.3982 4.71485 52.981 4.8122L53.1572 12.8103ZM53.3201 20.2005L53.4964 28.1985C57.9136 28.1012 61.4155 24.4414 61.3182 20.0242L53.3201 20.2005ZM46.3618 20.3538L46.1855 12.3558C41.7683 12.4531 38.2664 16.1129 38.3638 20.5301L46.3618 20.3538ZM53.5115 28.8864L61.5096 28.7101C61.4123 24.2929 57.7525 20.7909 53.3353 20.8883L53.5115 28.8864ZM53.514 28.9983L47.1796 29.1379L47.5321 45.1341L53.8666 44.9944L53.514 28.9983ZM47.1796 29.1379C45.3261 29.1788 45.1486 28.7281 45.4905 29.0279C45.6574 29.1743 45.7072 29.3045 45.6867 29.253C45.6512 29.1638 45.5233 28.7825 45.5052 27.9585L29.509 28.3111C29.612 32.982 31.0952 37.6849 34.9414 41.0577C38.6614 44.3198 43.339 45.2265 47.5321 45.1341L47.1796 29.1379ZM45.5052 27.9585L45.3381 20.3764L29.3419 20.7289L29.509 28.3111L45.5052 27.9585ZM37.1637 12.5546L33.6126 12.6329L33.9651 28.629L37.5163 28.5507L37.1637 12.5546ZM41.7869 20.4546L41.624 13.0644L25.6279 13.417L25.7908 20.8072L41.7869 20.4546ZM33.8023 21.2388L37.3534 21.1605L37.0009 5.16439L33.4497 5.24266L33.8023 21.2388ZM45.1752 12.9862L45.0832 8.81119L29.0871 9.16373L29.1791 13.3387L45.1752 12.9862ZM37.2614 16.9855L46.2832 16.7867L45.9307 0.790571L36.9088 0.989404L37.2614 16.9855ZM38.1089 8.9649L38.2009 13.1399L54.197 12.7873L54.105 8.61236L38.1089 8.9649ZM46.3752 20.9617L53.3335 20.8083L52.981 4.8122L46.0227 4.96556L46.3752 20.9617ZM45.1592 12.9865L45.3221 20.3767L61.3182 20.0242L61.1553 12.634L45.1592 12.9865ZM53.1438 12.2024L46.1855 12.3558L46.5381 28.3519L53.4964 28.1985L53.1438 12.2024ZM38.3638 20.5301L38.5023 26.8166L54.4984 26.464L54.3599 20.1776L38.3638 20.5301ZM38.5023 26.8166C38.5276 27.9656 38.6266 31.8331 41.8842 34.6235C44.8345 37.1507 48.4199 37.0005 49.3689 36.9796L49.0163 20.9835C48.7295 20.9898 48.9627 20.96 49.4377 21.0526C49.9669 21.1557 51.1282 21.4744 52.2929 22.472C53.5148 23.5187 54.0785 24.7412 54.3163 25.5401C54.5167 26.2135 54.5022 26.6355 54.4984 26.464L38.5023 26.8166ZM49.3689 36.9796L53.6878 36.8844L53.3353 20.8883L49.0163 20.9835L49.3689 36.9796ZM45.5135 29.0626L45.6922 37.1727L61.6883 36.8201L61.5096 28.7101L45.5135 29.0626ZM64.8656 36.7501L65.0418 44.7482C69.459 44.6508 72.961 40.991 72.8636 36.5738L64.8656 36.7501ZM55.8438 36.9489L47.8457 37.1252C47.9431 41.5424 51.6028 45.0443 56.02 44.947L55.8438 36.9489ZM55.3107 12.7628L55.1345 4.76474C50.7172 4.86209 47.2153 8.52186 47.3127 12.9391L55.3107 12.7628ZM63.7567 12.5767L71.7547 12.4004C71.6574 7.98318 67.9976 4.48125 63.5804 4.5786L63.7567 12.5767ZM63.8963 18.9111L55.8982 19.0874C55.9956 23.5046 59.6553 27.0065 64.0725 26.9092L63.8963 18.9111ZM64.3762 18.9005L64.5524 26.8986C68.4563 26.8126 71.7277 23.9208 72.2921 20.057L64.3762 18.9005ZM79.92 24.8955L80.0963 32.8936C84.5135 32.7962 88.0154 29.1364 87.9181 24.7192L79.92 24.8955ZM70.8982 25.0943L62.9002 25.2706C62.9975 29.6878 66.6573 33.1898 71.0745 33.0924L70.8982 25.0943ZM64.6893 28.752L55.6675 28.9509L56.02 44.947L65.0418 44.7482L64.6893 28.752ZM63.8418 36.7727L63.3088 12.5865L47.3127 12.9391L47.8457 37.1252L63.8418 36.7727ZM55.487 20.7609L63.9329 20.5747L63.5804 4.5786L55.1345 4.76474L55.487 20.7609ZM55.7586 12.7529L55.8982 19.0874L71.8943 18.7348L71.7547 12.4004L55.7586 12.7529ZM64.0725 26.9092L64.5524 26.8986L64.1999 10.9025L63.72 10.9131L64.0725 26.9092ZM72.2921 20.057C72.3178 19.8811 72.3485 19.7477 72.3756 19.6525C72.4027 19.5576 72.4248 19.506 72.4324 19.4897C72.4396 19.4741 72.4321 19.4935 72.4019 19.5368C72.3711 19.581 72.3227 19.6412 72.2547 19.7067C72.1862 19.7727 72.1113 19.831 72.0367 19.8782C71.9624 19.9251 71.9059 19.9499 71.8798 19.9598C71.8246 19.9809 71.9555 19.9178 72.3683 19.9087L72.0158 3.91258C67.9642 4.00187 64.1185 5.32716 61.1524 8.18544C58.2747 10.9585 56.9359 14.4879 56.4602 17.7441L72.2921 20.057ZM72.3683 19.9087C72.829 19.8985 72.8605 19.9732 72.638 19.884C72.5276 19.8397 72.3844 19.7664 72.2305 19.6552C72.0767 19.544 71.9461 19.4194 71.843 19.2972C71.6357 19.0512 71.6226 18.9159 71.6695 19.0712C71.7201 19.2384 71.8018 19.6207 71.8162 20.2729L87.8123 19.9204C87.7371 16.5081 86.9262 12.3667 84.0782 8.98697C80.9796 5.30983 76.5689 3.81223 72.0158 3.91258L72.3683 19.9087ZM71.8162 20.2729L71.922 25.0718L87.9181 24.7192L87.8123 19.9204L71.8162 20.2729ZM79.7438 16.8975L70.7219 17.0963L71.0745 33.0924L80.0963 32.8936L79.7438 16.8975ZM78.8963 24.9181L78.8339 22.0868L62.8378 22.4393L62.9002 25.2706L78.8963 24.9181ZM78.8339 22.0868C78.7968 20.4051 78.4637 16.7552 75.2931 14.0596C72.4151 11.6128 68.9988 11.5649 67.48 11.5984L67.8326 27.5945C68.0708 27.5892 67.8577 27.6184 67.4009 27.5167C66.8978 27.4048 65.9218 27.0932 64.9293 26.2494C63.89 25.3658 63.3303 24.3231 63.0633 23.5242C62.9409 23.1579 62.8874 22.8681 62.8632 22.6985C62.8507 22.6109 62.8445 22.5445 62.8414 22.5031C62.8382 22.4617 62.8378 22.4394 62.8378 22.4393L78.8339 22.0868ZM67.48 11.5984C65.9754 11.6315 62.5764 11.8115 59.8051 14.3152C56.6647 17.1525 56.5136 20.8668 56.5492 22.4819L72.5453 22.1293C72.5453 22.1308 72.5481 22.2375 72.5302 22.4204C72.5122 22.6035 72.4688 22.9129 72.3559 23.3033C72.1075 24.162 71.5628 25.2555 70.5311 26.1876C69.5598 27.0651 68.6008 27.3966 68.1465 27.5148C67.7296 27.6233 67.5542 27.6006 67.8326 27.5945L67.48 11.5984ZM56.5492 22.4819L56.8675 36.9264L72.8636 36.5738L72.5453 22.1293L56.5492 22.4819ZM88.9136 23.6891L89.8573 31.6332L89.8657 31.6322L88.9136 23.6891ZM98.7301 22.5125L99.6821 30.4556C103.77 29.9656 106.819 26.4526 106.728 22.3362L98.7301 22.5125ZM90.5604 22.1644L90.7367 30.1625C95.1539 30.0651 98.6558 26.4053 98.5585 21.9881L90.5604 22.1644ZM81.5386 22.3632L73.5406 22.5395C73.6379 26.9567 77.2977 30.4586 81.7149 30.3613L81.5386 22.3632ZM107.953 35.8005L108.129 43.7985C112.547 43.7012 116.049 40.0414 115.951 35.6242L107.953 35.8005ZM99.5072 35.9866L91.5091 36.1629C91.6065 40.5801 95.2662 44.082 99.6834 43.9847L99.5072 35.9866ZM99.3951 30.8999L107.393 30.7236C107.296 26.3064 103.636 22.8044 99.2188 22.9018L99.3951 30.8999ZM98.9152 30.9104L98.7389 22.9124C95.118 22.9922 92.0024 25.4947 91.1434 29.0131L98.9152 30.9104ZM98.7921 27.5043L106.761 28.2124C106.977 25.7837 106.073 23.3891 104.306 21.7085C102.54 20.0278 100.103 19.2444 97.6885 19.5808L98.7921 27.5043ZM91.4209 28.531L90.3173 20.6075L90.3114 20.6083L91.4209 28.531ZM89.7438 28.68C88.9686 28.6971 88.4973 28.6174 88.2705 28.5587C88.0508 28.5019 88.134 28.4852 88.3592 28.6541C88.6081 28.8408 88.8738 29.1391 89.0554 29.5132C89.2286 29.8699 89.2309 30.0992 89.2302 30.0676L73.2341 30.4202C73.3277 34.6642 75.1071 38.7147 78.7583 41.4535C82.1453 43.9941 86.2748 44.7603 90.0963 44.6761L89.7438 28.68ZM89.2302 30.0676C89.2319 30.1415 89.2234 30.4393 89.0584 30.8508C88.8852 31.2828 88.6227 31.6304 88.3732 31.8567C88.1465 32.0624 88.0523 32.059 88.2788 31.9717C88.5136 31.8811 89.008 31.7341 89.8573 31.6332L87.97 15.7449C84.3108 16.1796 80.5475 17.3528 77.622 20.0072C74.4499 22.8853 73.152 26.6953 73.2341 30.4202L89.2302 30.0676ZM89.8657 31.6322L99.6821 30.4556L97.778 14.5693L87.9616 15.7459L89.8657 31.6322ZM106.728 22.3362L106.718 21.8563L90.7215 22.2089L90.732 22.6887L106.728 22.3362ZM106.718 21.8563C106.671 19.7493 106.123 15.3078 101.72 12.7812C100.035 11.8141 98.3716 11.5188 97.305 11.399C96.205 11.2755 95.103 11.2777 94.2099 11.2973L94.5624 27.2935C94.8922 27.2862 95.1312 27.286 95.3067 27.2901C95.4852 27.2943 95.5436 27.3018 95.5191 27.299C95.4978 27.2966 95.3153 27.276 95.0311 27.1977C94.7414 27.1178 94.2847 26.9615 93.7561 26.6581C92.5104 25.9431 91.586 24.8323 91.0911 23.6488C90.6988 22.7106 90.7182 22.0593 90.7215 22.2089L106.718 21.8563ZM94.2099 11.2973C92.8121 11.3282 89.562 11.4032 86.786 13.3245C82.9185 16.0012 82.5125 20.0784 82.5581 22.1487L98.5543 21.7962C98.5545 21.8076 98.5821 22.5008 98.2303 23.4622C97.808 24.6162 97.0035 25.7113 95.8916 26.4809C94.9436 27.137 94.1495 27.2923 94.0378 27.3138C93.9098 27.3385 94.0202 27.3054 94.5624 27.2935L94.2099 11.2973ZM82.5581 22.1487L82.5624 22.3407L98.5585 21.9881L98.5543 21.7962L82.5581 22.1487ZM90.3842 14.1663L81.3624 14.3652L81.7149 30.3613L90.7367 30.1625L90.3842 14.1663ZM89.5367 22.187L89.5346 22.091L73.5384 22.4435L73.5406 22.5395L89.5367 22.187ZM89.5346 22.091C89.5242 21.6196 89.6112 21.3675 89.6693 21.2418C89.7281 21.1148 89.8423 20.9333 90.1176 20.7101C90.7111 20.229 92.2082 19.4714 95.0608 19.4086L94.7083 3.41245C89.3549 3.53044 84.1071 4.98598 80.0426 8.28048C75.7862 11.7306 73.4132 16.7618 73.5384 22.4435L89.5346 22.091ZM95.0608 19.4086C98.0879 19.3419 99.0308 20.064 99.1435 20.1615C99.2041 20.2139 99.2844 20.2951 99.3774 20.5218C99.4837 20.7814 99.6317 21.3048 99.6515 22.2041L115.648 21.8516C115.537 16.8346 113.862 11.7392 109.613 8.06248C105.492 4.49637 100.127 3.29303 94.7083 3.41245L95.0608 19.4086ZM99.6515 22.2041L99.955 35.9768L115.951 35.6242L115.648 21.8516L99.6515 22.2041ZM107.777 27.8024L99.3309 27.9886L99.6834 43.9847L108.129 43.7985L107.777 27.8024ZM107.505 35.8104L107.393 30.7236L91.397 31.0761L91.5091 36.1629L107.505 35.8104ZM99.2188 22.9018L98.7389 22.9124L99.0914 38.9085L99.5713 38.8979L99.2188 22.9018ZM91.1434 29.0131C91.1428 29.0155 91.1503 28.9845 91.1746 28.929C91.1993 28.8726 91.2369 28.8011 91.2904 28.7229C91.4077 28.5515 91.537 28.4407 91.6108 28.3912C91.7373 28.3064 91.3162 28.6453 89.7438 28.68L90.0963 44.6761C93.7547 44.5955 97.4127 43.7643 100.52 41.6813C103.761 39.5087 105.821 36.3541 106.687 32.8077L91.1434 29.0131ZM82.2912 29.6444C82.3263 31.2347 82.7976 33.1992 84.2168 34.9569C85.5636 36.6251 87.2052 37.41 88.3159 37.7832C90.1839 38.4107 92.0579 38.3433 92.6451 38.3304L92.2926 22.3343C92.0505 22.3396 92.0286 22.3323 92.1264 22.3395C92.1839 22.3437 92.7003 22.3773 93.4112 22.6162C94.1531 22.8654 95.5118 23.4766 96.6658 24.9059C97.8921 26.4248 98.2608 28.0855 98.2874 29.2919L82.2912 29.6444ZM92.6451 38.3304C94.7515 38.284 97.713 38.1533 100.293 37.0704C101.804 36.4359 103.496 35.3579 104.811 33.5454C106.123 31.738 106.619 29.8099 106.761 28.2124L90.8235 26.7963C90.8693 26.2811 91.0722 25.2357 91.8629 24.1464C92.6573 23.0521 93.5987 22.5278 94.0993 22.3176C94.5188 22.1415 94.6698 22.1659 94.2528 22.2195C93.8704 22.2686 93.2575 22.313 92.2926 22.3343L92.6451 38.3304ZM97.6885 19.5808L90.3173 20.6075L92.5245 36.4545L99.8957 35.4278L97.6885 19.5808ZM90.3114 20.6083C89.3584 20.7418 87.2827 21.1307 85.3876 22.7292C83.0142 24.7311 82.2428 27.4468 82.2912 29.6444L98.2874 29.2919C98.303 30.0032 98.2114 31.0072 97.7623 32.1167C97.295 33.2711 96.5628 34.2348 95.7036 34.9595C94.1738 36.2498 92.6698 36.4342 92.5305 36.4537L90.3114 20.6083ZM128.719 35.3428L128.895 43.3409C133.312 43.2435 136.814 39.5838 136.717 35.1666L128.719 35.3428ZM112.369 18.8991L120.367 18.7228C120.269 14.3056 116.61 10.8037 112.192 10.901L112.369 18.8991ZM108.818 18.9774L100.819 19.1536C100.917 23.5708 104.577 27.0728 108.994 26.9754L108.818 18.9774ZM108.655 11.5871L108.478 3.58909C104.061 3.68644 100.559 7.34621 100.657 11.7634L108.655 11.5871ZM112.206 11.5089L112.382 19.5069C116.799 19.4096 120.301 15.7498 120.204 11.3326L112.206 11.5089ZM112.114 7.33389L111.938 -0.664163C107.52 -0.566812 104.018 3.09296 104.116 7.51016L112.114 7.33389ZM121.136 7.13506L129.134 6.95879C129.036 2.54159 125.377 -0.960348 120.959 -0.862996L121.136 7.13506ZM121.228 11.31L113.23 11.4863C113.327 15.9035 116.987 19.4055 121.404 19.3081L121.228 11.31ZM128.186 11.1567L136.184 10.9804C136.087 6.56322 132.427 3.06128 128.01 3.15864L128.186 11.1567ZM128.349 18.5469L128.525 26.545C132.942 26.4476 136.444 22.7878 136.347 18.3706L128.349 18.5469ZM121.39 18.7003L121.214 10.7022C116.797 10.7995 113.295 14.4593 113.392 18.8765L121.39 18.7003ZM128.54 27.2328L136.538 27.0565C136.441 22.6393 132.781 19.1374 128.364 19.2347L128.54 27.2328ZM128.543 27.3448L122.208 27.4844L122.561 43.4805L128.895 43.3409L128.543 27.3448ZM122.208 27.4844C120.355 27.5252 120.177 27.0745 120.519 27.3743C120.686 27.5207 120.736 27.6509 120.715 27.5994C120.68 27.5102 120.552 27.1289 120.534 26.305L104.538 26.6575C104.641 31.3284 106.124 36.0314 109.97 39.4041C113.69 42.6662 118.368 43.5729 122.561 43.4805L122.208 27.4844ZM120.534 26.305L120.367 18.7228L104.371 19.0754L104.538 26.6575L120.534 26.305ZM112.192 10.901L108.641 10.9793L108.994 26.9754L112.545 26.8971L112.192 10.901ZM116.816 18.8011L116.653 11.4109L100.657 11.7634L100.819 19.1536L116.816 18.8011ZM108.831 19.5852L112.382 19.5069L112.03 3.51082L108.478 3.58909L108.831 19.5852ZM120.204 11.3326L120.112 7.15762L104.116 7.51016L104.208 11.6852L120.204 11.3326ZM112.29 15.332L121.312 15.1331L120.959 -0.862996L111.938 -0.664163L112.29 15.332ZM113.138 7.31133L113.23 11.4863L129.226 11.1338L129.134 6.95879L113.138 7.31133ZM121.404 19.3081L128.362 19.1548L128.01 3.15864L121.051 3.31199L121.404 19.3081ZM120.188 11.333L120.351 18.7232L136.347 18.3706L136.184 10.9804L120.188 11.333ZM128.173 10.5488L121.214 10.7022L121.567 26.6983L128.525 26.545L128.173 10.5488ZM113.392 18.8765L113.531 25.163L129.527 24.8105L129.389 18.524L113.392 18.8765ZM113.531 25.163C113.556 26.312 113.655 30.1796 116.913 32.97C119.863 35.4972 123.449 35.3469 124.398 35.326L124.045 19.3299C123.758 19.3362 123.991 19.3064 124.466 19.399C124.996 19.5022 126.157 19.8208 127.322 20.8185C128.543 21.8651 129.107 23.0877 129.345 23.8865C129.545 24.56 129.531 24.9819 129.527 24.8105L113.531 25.163ZM124.398 35.326L128.716 35.2308L128.364 19.2347L124.045 19.3299L124.398 35.326ZM120.542 27.4091L120.721 35.5191L136.717 35.1666L136.538 27.0565L120.542 27.4091ZM157.468 24.2907L157.645 32.2887C161.72 32.1989 165.076 29.0591 165.437 24.9987L157.468 24.2907ZM138.513 24.7084L138.337 16.7104C136.147 16.7586 134.073 17.7023 132.599 19.3213C131.124 20.9403 130.378 23.093 130.533 25.2774L138.513 24.7084ZM148.424 25.6423L148.248 17.6442C143.831 17.7416 140.329 21.4014 140.426 25.8186L148.424 25.6423ZM157.446 25.4435L165.444 25.2672C165.347 20.85 161.687 17.348 157.27 17.4454L157.446 25.4435ZM138.556 20.1464L130.661 18.8568C130.278 21.2036 130.958 23.5993 132.518 25.3941C134.078 27.1889 136.355 28.1968 138.733 28.1444L138.556 20.1464ZM148.778 19.9211L148.954 27.9192C151.3 27.8675 153.505 26.7886 154.985 24.9681C156.465 23.1476 157.072 20.769 156.644 18.462L148.778 19.9211ZM144.191 27.48C141.044 27.5494 139.646 26.8815 139.161 26.5035C138.979 26.3618 138.184 25.7725 138.124 23.0366L122.128 23.3891C122.268 29.723 124.491 35.3567 129.328 39.1254C133.862 42.6578 139.486 43.5876 144.544 43.4761L144.191 27.48ZM138.124 23.0366C138.083 21.1645 138.673 20.2681 139.224 19.7574C139.883 19.1461 141.281 18.3899 143.798 18.3344L143.445 2.33833C137.9 2.46054 132.463 4.20751 128.347 8.0226C124.123 11.9381 121.996 17.3912 122.128 23.3891L138.124 23.0366ZM143.798 18.3344C146.741 18.2696 148.115 18.9805 148.618 19.3886C148.929 19.6403 149.521 20.2286 149.564 22.1603L165.56 21.8078C165.431 15.9654 163.228 10.6379 158.699 6.96329C154.362 3.44503 148.852 2.21918 143.445 2.33833L143.798 18.3344ZM149.564 22.1603C149.573 22.5826 149.561 22.8928 149.5 23.5826L165.437 24.9987C165.53 23.9567 165.586 23.0172 165.56 21.8078L149.564 22.1603ZM157.292 16.2926L138.337 16.7104L138.689 32.7065L157.645 32.2887L157.292 16.2926ZM130.533 25.2774C130.706 27.698 131.508 31.7364 135.419 34.323C138.52 36.3735 142.112 36.376 144.05 36.3332L143.698 20.3371C142.965 20.3533 142.706 20.3152 142.722 20.3177C142.744 20.3213 143.408 20.4235 144.245 20.9772C145.205 21.6118 145.865 22.4865 146.223 23.3033C146.517 23.9714 146.51 24.3749 146.493 24.1395L130.533 25.2774ZM144.05 36.3332C145.881 36.2929 148.698 36.1501 151.17 34.8884C152.682 34.1173 154.253 32.8427 155.304 30.8758C156.304 29.0051 156.46 27.2004 156.434 25.9939L140.438 26.3464C140.427 25.8597 140.476 24.6756 141.194 23.3331C141.963 21.8946 143.076 21.0563 143.899 20.6364C144.596 20.2807 145.052 20.2367 144.891 20.2621C144.773 20.2805 144.417 20.3213 143.698 20.3371L144.05 36.3332ZM156.434 25.9939L156.422 25.466L140.426 25.8186L140.438 26.3464L156.434 25.9939ZM148.6 33.6403L157.622 33.4415L157.27 17.4454L148.248 17.6442L148.6 33.6403ZM149.448 25.6197L149.46 26.1956L165.457 25.843L165.444 25.2672L149.448 25.6197ZM149.46 26.1956C149.461 26.2276 149.462 26.1463 149.511 26.0509C149.552 25.9724 149.534 26.0629 149.272 26.2555C148.691 26.6839 147.136 27.4151 144.191 27.48L144.544 43.4761C149.758 43.3612 154.807 42.0504 158.761 39.138C162.906 36.0849 165.579 31.3959 165.457 25.843L149.46 26.1956ZM143.406 9.25288C141.494 9.29502 138.617 9.50421 135.995 10.9975C132.647 12.9047 131.128 15.9967 130.661 18.8568L146.452 21.436C146.412 21.6795 146.271 22.3262 145.79 23.0904C145.273 23.9122 144.584 24.5185 143.914 24.9005C143.61 25.0738 143.355 25.1749 143.189 25.2311C143.025 25.2866 142.929 25.3044 142.928 25.3045C142.927 25.3048 142.99 25.293 143.137 25.2799C143.283 25.267 143.486 25.255 143.758 25.249L143.406 9.25288ZM138.733 28.1444L148.954 27.9192L148.602 11.923L138.38 12.1483L138.733 28.1444ZM156.644 18.462C156.089 15.4731 154.376 12.3998 150.902 10.6458C148.218 9.29078 145.328 9.21051 143.406 9.25288L143.758 25.249C144.345 25.2361 144.604 25.2643 144.646 25.2702C144.695 25.2771 144.291 25.2318 143.691 24.9286C143.01 24.585 142.267 24.0039 141.687 23.1613C141.143 22.3706 140.967 21.6749 140.912 21.3802L156.644 18.462ZM179.667 15.6875L171.798 17.1322C172.508 20.9953 175.916 23.7721 179.843 23.6855L179.667 15.6875ZM180.147 15.6769L180.323 23.675C184.74 23.5776 188.242 19.9178 188.145 15.5006L180.147 15.6769ZM180.022 10.0143L179.846 2.01621C175.428 2.11356 171.927 5.77334 172.024 10.1905L180.022 10.0143ZM188.468 9.82813L196.466 9.65186C196.369 5.23465 192.709 1.73272 188.292 1.83007L188.468 9.82813ZM161.188 33.3789L161.012 25.3809C156.595 25.4782 153.093 29.138 153.19 33.5552L161.188 33.3789ZM170.21 33.1801L178.208 33.0038C178.111 28.5866 174.451 25.0847 170.034 25.182L170.21 33.1801ZM179.791 25.6712L187.789 25.4949C187.692 21.0777 184.032 17.5758 179.615 17.6731L179.791 25.6712ZM179.311 25.6817L179.135 17.6837C175.258 17.7691 172.001 20.6218 171.406 24.453L179.311 25.6817ZM170.77 23.7255C168.683 23.7715 168.112 23.2123 168.08 23.1819C168.053 23.1557 167.514 22.6675 167.472 20.7574L151.475 21.11C151.586 26.1102 153.184 31.0962 157.055 34.777C160.922 38.4536 166.011 39.8342 171.122 39.7216L170.77 23.7255ZM167.472 20.7574C167.435 19.0801 167.911 18.5924 167.999 18.5045C168.133 18.3713 168.82 17.783 170.878 17.7376L170.525 1.74151C165.433 1.85373 160.431 3.45528 156.7 7.1762C152.925 10.9423 151.362 15.973 151.475 21.11L167.472 20.7574ZM170.878 17.7376C171.58 17.7222 172.04 17.7839 172.302 17.8429C172.558 17.9004 172.56 17.9403 172.425 17.8538C172.268 17.7537 172.073 17.5767 171.921 17.3428C171.777 17.1197 171.775 17.0051 171.798 17.1322L187.535 14.2427C186.787 10.1687 184.601 6.64738 181.042 4.37222C177.726 2.25276 173.933 1.66641 170.525 1.74151L170.878 17.7376ZM179.843 23.6855L180.323 23.675L179.97 7.67884L179.491 7.68941L179.843 23.6855ZM188.145 15.5006L188.02 9.838L172.024 10.1905L172.149 15.8532L188.145 15.5006ZM180.198 18.0123L188.644 17.8262L188.292 1.83007L179.846 2.01621L180.198 18.0123ZM180.47 10.0044L180.913 30.1115L196.909 29.759L196.466 9.65186L180.47 10.0044ZM180.913 30.1115C180.972 32.8051 180.247 33.4825 180.05 33.6594C179.63 34.0365 178.229 34.8918 174.571 34.9724L174.923 50.9686C180.574 50.844 186.351 49.5007 190.733 45.5709C195.338 41.441 197.04 35.7033 196.909 29.759L180.913 30.1115ZM174.571 34.9724C171.307 35.0444 169.867 34.3661 169.455 34.0765C169.366 34.0136 169.328 33.973 169.319 33.9627C169.311 33.9536 169.309 33.9495 169.304 33.9398C169.302 33.9374 169.198 33.7436 169.186 33.2027L153.19 33.5552C153.311 39.0441 155.681 43.9497 160.25 47.1634C164.471 50.1325 169.741 51.0828 174.923 50.9686L174.571 34.9724ZM161.364 41.377L170.386 41.1781L170.034 25.182L161.012 25.3809L161.364 41.377ZM162.212 33.3564C162.22 33.7361 162.222 35.26 162.734 36.8458C163.431 39.0067 164.913 40.9608 167.181 42.1767C168.955 43.1277 170.732 43.353 171.743 43.4424C172.882 43.5432 174.137 43.5441 175.383 43.5166L175.03 27.5205C173.925 27.5449 173.385 27.5253 173.153 27.5047C172.793 27.4729 173.623 27.4759 174.741 28.0753C175.4 28.4285 176.13 28.9711 176.772 29.7583C177.407 30.5376 177.764 31.3228 177.961 31.9344C178.144 32.5018 178.192 32.9282 178.204 33.0506C178.216 33.1715 178.212 33.2033 178.208 33.0038L162.212 33.3564ZM175.383 43.5166C176.438 43.4934 177.84 43.4336 179.231 43.1428C180.686 42.8384 182.758 42.1576 184.578 40.4145C186.446 38.6265 187.236 36.5058 187.583 34.8536C187.906 33.3165 187.928 31.786 187.901 30.5817L171.905 30.9342C171.923 31.7694 171.866 31.843 171.924 31.5675C172.006 31.177 172.346 29.9754 173.514 28.857C174.635 27.7834 175.759 27.5227 175.955 27.4816C176.087 27.4541 175.919 27.5009 175.03 27.5205L175.383 43.5166ZM187.901 30.5817L187.789 25.4949L171.793 25.8474L171.905 30.9342L187.901 30.5817ZM179.615 17.6731L179.135 17.6837L179.487 33.6798L179.967 33.6692L179.615 17.6731ZM171.406 24.453C171.389 24.5591 171.388 24.4653 171.498 24.2635C171.619 24.043 171.801 23.8252 172.008 23.6641C172.42 23.3429 172.323 23.6912 170.77 23.7255L171.122 39.7216C174.896 39.6384 178.708 38.7243 181.835 36.2908C185.084 33.762 186.69 30.2973 187.216 26.9105L171.406 24.453ZM160.593 20.909C160.648 23.3832 161.413 27.5225 165.554 30.0745C168.562 31.9278 172.067 31.9709 174.215 31.9235L173.863 15.9274C173.046 15.9454 172.69 15.9054 172.62 15.8948C172.531 15.8813 173.131 15.9496 173.948 16.4531C174.923 17.0537 175.732 17.9793 176.201 19.0513C176.404 19.5163 176.498 19.9058 176.543 20.1548C176.586 20.3988 176.589 20.5473 176.589 20.5565L160.593 20.909ZM174.215 31.9235C176.005 31.8841 179.221 31.8058 181.979 30.4231C183.699 29.5609 185.386 28.1455 186.492 26.0151C187.525 24.0252 187.713 22.056 187.681 20.6001L171.685 20.9526C171.681 20.7684 171.682 19.8176 172.292 18.6426C172.974 17.3273 174.003 16.5236 174.808 16.1197C175.453 15.7964 175.834 15.7871 175.525 15.8302C175.259 15.8673 174.759 15.9077 173.863 15.9274L174.215 31.9235ZM187.681 20.6001L187.674 20.2642L171.678 20.6167L171.685 20.9526L187.681 20.6001ZM187.674 20.2642C187.642 18.8118 187.372 16.8771 186.292 14.9516C185.133 12.8867 183.426 11.5132 181.658 10.6884C178.801 9.35637 175.547 9.40872 173.72 9.44899L174.072 25.4451C174.953 25.4257 175.436 25.4467 175.681 25.4717C175.965 25.5007 175.566 25.502 174.895 25.1889C174.06 24.7997 173.039 24.0292 172.339 22.7824C171.717 21.675 171.681 20.7734 171.678 20.6167L187.674 20.2642ZM173.72 9.44899C171.655 9.4945 168.212 9.65628 165.324 11.5078C163.554 12.6423 162.18 14.2684 161.38 16.2601C160.658 18.0591 160.568 19.7526 160.593 20.909L176.589 20.5565C176.59 20.5772 176.593 20.7454 176.556 21.015C176.518 21.2905 176.432 21.7153 176.229 22.2207C175.759 23.3904 174.923 24.3595 173.958 24.9783C173.164 25.4869 172.588 25.5623 172.726 25.5369C172.835 25.5169 173.225 25.4638 174.072 25.4451L173.72 9.44899ZM193.028 42.0875L185.03 42.2637C185.128 46.681 188.787 50.1829 193.205 50.0855L193.028 42.0875ZM192.849 33.9295L192.672 25.9314C188.255 26.0288 184.753 29.6885 184.851 34.1057L192.849 33.9295ZM201.528 33.4501L205.263 40.5249C209.134 38.4813 210.644 33.7052 208.651 29.8074L201.528 33.4501ZM189.436 9.80679L189.26 1.80873C186.506 1.86942 183.978 3.34226 182.566 5.70739C181.155 8.07253 181.06 10.9973 182.314 13.4495L189.436 9.80679ZM199.706 9.58046L206.957 6.20167C205.617 3.32486 202.703 1.51247 199.53 1.5824L199.706 9.58046ZM204.09 18.9901L211.677 16.4512C211.581 16.1651 211.469 15.8847 211.342 15.6113L204.09 18.9901ZM205.94 24.5187L198.354 27.0577C199.466 30.3814 202.613 32.594 206.117 32.5168L205.94 24.5187ZM206.564 24.505L206.741 32.503C210.328 32.4239 213.424 29.9656 214.314 26.4893L206.564 24.505ZM208.023 18.8074L200.49 16.1137C200.407 16.3467 200.334 16.5834 200.273 16.8231L208.023 18.8074ZM211.415 9.3224L211.239 1.32434C207.924 1.39738 204.998 3.50707 203.882 6.62866L211.415 9.3224ZM221.492 9.1003L228.843 12.259C229.917 9.75827 229.647 6.88275 228.125 4.62634C226.602 2.36994 224.037 1.04227 221.316 1.10224L221.492 9.1003ZM210.577 34.499L203.227 31.3403C203.225 31.345 203.223 31.3497 203.221 31.3545L210.577 34.499ZM197.219 33.9932L192.852 34.0894L193.205 50.0855L197.572 49.9893L197.219 33.9932ZM201.026 41.9112L200.847 33.7532L184.851 34.1057L185.03 42.2637L201.026 41.9112ZM193.025 41.9275L200.031 41.7731L199.679 25.777L192.672 25.9314L193.025 41.9275ZM200.031 41.7731C201.208 41.7472 203.254 41.5851 205.263 40.5249L197.794 26.3752C198.503 26.001 199.072 25.8714 199.303 25.8267C199.563 25.7766 199.702 25.7765 199.679 25.777L200.031 41.7731ZM208.651 29.8074L196.559 6.1641L182.314 13.4495L194.406 37.0928L208.651 29.8074ZM189.613 17.8048L199.882 17.5785L199.53 1.5824L189.26 1.80873L189.613 17.8048ZM192.454 12.9592L196.839 22.3689L211.342 15.6113L206.957 6.20167L192.454 12.9592ZM196.504 21.5291L198.354 27.0577L213.527 21.9797L211.677 16.4512L196.504 21.5291ZM206.117 32.5168L206.741 32.503L206.388 16.5069L205.764 16.5207L206.117 32.5168ZM214.314 26.4893L215.773 20.7918L200.273 16.8231L198.814 22.5206L214.314 26.4893ZM215.556 21.5012L218.948 12.0161L203.882 6.62866L200.49 16.1137L215.556 21.5012ZM211.591 17.3205L221.669 17.0984L221.316 1.10224L211.239 1.32434L211.591 17.3205ZM214.142 5.94164L203.227 31.3403L217.927 37.6576L228.843 12.259L214.142 5.94164ZM203.221 31.3545C202.483 33.081 201.999 33.2605 201.917 33.3044C201.511 33.523 200.382 33.9235 197.219 33.9932L197.572 49.9893C201.463 49.9035 205.692 49.4417 209.497 47.395C213.627 45.1735 216.206 41.6846 217.934 37.6435L203.221 31.3545Z" fill="url(#paint0_radial_1_4009)" mask="url(#path-1-outside-1_1_4009)"/>
<path d="M18.4009 38.2543C8.56332 38.4711 2.48757 35.1001 2.30778 26.9421L2.30143 26.6542L11.3232 26.4553L11.3455 27.4631C11.393 29.6226 12.1736 30.1815 18.2201 30.0482C23.6908 29.9277 24.2571 29.4831 24.2254 28.0434C24.2 26.8917 23.5656 26.4256 20.9188 26.1478L10.8116 25.0263C4.79511 24.3427 1.70098 21.1941 1.58676 16.0113C1.47359 10.8766 5.33817 5.4141 16.9514 5.15816C27.1729 4.93288 32.166 9.28792 32.3247 16.4862L32.331 16.7741L23.3092 16.9729L23.2934 16.2531C23.2426 13.9497 22.2179 13.2041 16.1714 13.3373C11.5645 13.4389 10.5705 14.0849 10.6012 15.4766C10.6234 16.4843 11.2098 16.9515 12.9427 17.1534L23.053 18.4189C30.9485 19.3972 33.1488 23.3817 33.2398 27.5087C33.3614 33.0273 29.2463 38.0152 18.4009 38.2543ZM53.6903 36.9964L47.3558 37.136C41.3093 37.2693 37.6457 34.4213 37.5071 28.1348L37.34 20.5527L33.7889 20.6309L33.626 13.2407L37.1771 13.1624L37.0851 8.98746L46.1069 8.78863L46.1989 12.9636L53.1572 12.8103L53.3201 20.2005L46.3618 20.3538L46.5004 26.6403C46.5427 28.5598 47.1291 29.027 49.1926 28.9815L53.5115 28.8864L53.6903 36.9964ZM64.8656 36.7501L55.8438 36.9489L55.3107 12.7628L63.7567 12.5767L63.8963 18.9111L64.3762 18.9005C64.9602 14.9027 67.3932 12.0164 72.192 11.9106C77.5188 11.7932 79.7074 15.2499 79.8143 20.0967L79.92 24.8955L70.8982 25.0943L70.8358 22.263C70.7914 20.2475 70.0077 19.5446 67.6563 19.5964C65.2089 19.6504 64.5049 20.3861 64.5472 22.3056L64.8656 36.7501ZM89.9201 36.678C84.4494 36.7986 81.3231 34.3709 81.2322 30.2439C81.1571 26.8367 83.4546 24.3375 88.9136 23.6891L98.7301 22.5125L98.7195 22.0326C98.6656 19.5852 97.6014 19.2245 94.3861 19.2954C91.4109 19.361 90.5118 19.9569 90.5562 21.9724L90.5604 22.1644L81.5386 22.3632L81.5365 22.2673C81.3948 15.8368 86.6785 11.5914 94.8845 11.4105C103.33 11.2244 107.5 15.2615 107.65 22.0278L107.953 35.8005L99.5072 35.9866L99.3951 30.8999L98.9152 30.9104C98.0785 34.3377 95.1508 36.5628 89.9201 36.678ZM90.2893 29.4681C90.3062 30.236 91.0772 30.363 92.4689 30.3323C96.8358 30.2361 98.5997 29.6691 98.7921 27.5043L91.4209 28.531C90.6072 28.6449 90.2777 28.9403 90.2893 29.4681ZM128.719 35.3428L122.384 35.4824C116.338 35.6157 112.674 32.7677 112.536 26.4812L112.369 18.8991L108.818 18.9774L108.655 11.5871L112.206 11.5089L112.114 7.33389L121.136 7.13506L121.228 11.31L128.186 11.1567L128.349 18.5469L121.39 18.7003L121.529 24.9867C121.571 26.9063 122.158 27.3735 124.221 27.328L128.54 27.2328L128.719 35.3428ZM144.368 35.4781C136.162 35.6589 130.326 32.2827 130.126 23.2129C129.953 15.3428 135.56 10.5141 143.622 10.3364C151.972 10.1524 157.39 14.21 157.562 21.9841C157.58 22.7999 157.545 23.4248 157.468 24.2907L138.513 24.7084C138.721 27.6326 140.035 28.4198 143.874 28.3352C147.521 28.2548 148.467 27.6098 148.436 26.1702L148.424 25.6423L157.446 25.4435L157.458 26.0193C157.577 31.394 152.526 35.2983 144.368 35.4781ZM143.582 17.2509C140.271 17.3239 138.895 18.0744 138.556 20.1464L148.778 19.9211C148.397 17.865 146.941 17.1769 143.582 17.2509ZM170.946 31.7235C163.748 31.8822 159.626 27.844 159.474 20.9337C159.323 14.1193 163.551 9.89715 170.702 9.73957C175.596 9.63169 178.903 11.5273 179.667 15.6875L180.147 15.6769L180.022 10.0143L188.468 9.82813L188.911 29.9352C189.101 38.5732 184.057 42.7653 174.747 42.9705C166.301 43.1566 161.328 39.7134 161.188 33.3789L170.21 33.1801C170.253 35.1476 170.504 35.6222 175.207 35.5186C179.094 35.4329 179.993 34.8369 179.903 30.7579L179.791 25.6712L179.311 25.6817C178.764 29.1986 176.273 31.6061 170.946 31.7235ZM168.591 20.7327C168.644 23.1321 169.816 24.0185 174.039 23.9255C178.07 23.8366 179.739 23.3197 179.683 20.7764L179.676 20.4404C179.618 17.8491 177.927 17.3582 173.896 17.447C169.673 17.5401 168.54 18.3813 168.591 20.7327ZM197.395 41.9912L193.028 42.0875L192.849 33.9295L199.855 33.775C200.575 33.7592 201.148 33.6505 201.528 33.4501L189.436 9.80679L199.706 9.58046L204.09 18.9901L205.94 24.5187L206.564 24.505L208.023 18.8074L211.415 9.3224L221.492 9.1003L210.577 34.499C208.112 40.2667 204.45 41.8358 197.395 41.9912Z" fill="#204AF8"/>
<defs>
<radialGradient id="paint0_radial_1_4009" cx="0" cy="0" r="1" gradientUnits="userSpaceOnUse" gradientTransform="translate(111.475 19.719) rotate(-1.26255) scale(110.5 16)">
<stop stop-color="white"/>
<stop offset="1" stop-color="white" stop-opacity="0.99"/>
</radialGradient>
</defs>
</svg>
